<?xml version="1.0" standalone="no"?>
<!DOCTYPE svg PUBLIC "-//W3C//DTD SVG 1.1//EN" "http://www.w3.org/Graphics/SVG/1.1/DTD/svg11.dtd" >
<svg xmlns="http://www.w3.org/2000/svg">
<metadata>Generated by IcoMoon</metadata>
<defs>
<font id="Rosnou" horiz-adv-x="1024">
<font-face units-per-em="1024" ascent="870.4" descent="-153.6" />
<missing-glyph horiz-adv-x="1024" />
<glyph unicode="&#x20;" horiz-adv-x="512" d="" />
<glyph unicode="&#xe900;" glyph-name="course-24" d="M298.6 128v-85.4h-85.4c-23.6 0-42.6-19.2-42.6-42.6s19.2-42.6 42.6-42.6h597.4c23.6 0 42.6 19.2 42.6 42.6s-19.2 42.6-42.6 42.6h-85.4v85.4h85.4c70.6 0 128 57.4 128 128v426.6c0 70.6-57.4 128-128 128h-597.2c-70.6 0-128-57.4-128-128v-426.6c0-70.6 57.4-128 128-128h85.2zM170.6 682.6c0 23.6 19.2 42.6 42.6 42.6h597.4c23.6 0 42.6-19.2 42.6-42.6v-426.6c0-23.6-19.2-42.6-42.6-42.6h-597.2c-23.6 0-42.6 19.2-42.6 42.6v426.6h-0.2zM384 42.6v85.4h256v-85.4h-256zM748.4 578l-220.6 80.6c-10.2 3.6-21.6 3.6-31.8 0l-220.4-80.6c-40.2-14-40.2-68 0-82l29.8-10.4v-112l5.6-12.8c1.8-3.2 4.4-7.4 8-12 7.2-9.4 18.2-20.6 34.8-31.4 33.2-21.8 75.4-39.8 158.6-39.8 83 0 125.4 18.2 158.6 39.8 16.6 10.8 27.6 22 34.8 31.4 3.6 4.6 6.2 8.8 8 12l5.6 12.8v112l29.8 10.4c39.6 14 39.6 68-0.8 82zM645 389c-2.6-3.4-7.6-8.6-16.2-14.2-18.4-12-45-27.6-116.8-27.6s-98.4 15.6-116.8 27.6c-8.6 5.6-13.6 10.8-16.2 14.2v0 71l117.2-44.6c10.2-3.6 21.6-3.6 31.8 0l117.2 44.6v-71zM512 484.4v0l-64.8 26.4-75.6 26.4 140.4 52.6 140.4-52.6-140.4-52.8z" />
<glyph unicode="&#xe901;" glyph-name="arrow-angle-down-24" d="M161.83 488.837c16.663 16.662 43.677 16.662 60.34 0l289.83-289.831 289.83 289.831c16.661 16.662 43.678 16.662 60.339 0s16.661-43.677 0-60.34l-318.49-318.494c-17.498-17.493-45.862-17.493-63.36 0l-318.49 318.494c-16.662 16.662-16.662 43.677 0 60.34z" />
<glyph unicode="&#xe902;" glyph-name="arrow-angle-left-24" d="M648.836 702.17c16.661-16.663 16.661-43.677 0-60.34l-289.83-289.83 289.83-289.83c16.661-16.661 16.661-43.678 0-60.339s-43.678-16.661-60.339 0l-318.492 318.49c-17.496 17.498-17.495 45.862 0 63.36l318.492 318.49c16.661 16.662 43.678 16.662 60.339 0z" />
<glyph unicode="&#xe903;" glyph-name="arrow-angle-right-24" d="M375.163 1.83c-16.662 16.661-16.662 43.678 0 60.339l289.831 289.83-289.831 289.83c-16.662 16.663-16.662 43.677 0 60.34s43.677 16.662 60.34 0l318.494-318.49c17.493-17.498 17.493-45.862 0-63.36l-318.494-318.49c-16.662-16.661-43.677-16.661-60.34 0z" />
<glyph unicode="&#xe904;" glyph-name="absent-person-32" d="M96 320c0 17.674 14.327 32 32 32h768c17.674 0 32-14.326 32-32s-14.326-32-32-32h-32v-320c0-17.674-14.326-32-32-32s-32 14.326-32 32v128h-576v-128c0-17.674-14.327-32-32-32s-32 14.326-32 32v320h-32c-17.673 0-32 14.326-32 32zM224 288v-128h576v128h-576zM361.373 758.628c12.496 12.497 32.758 12.497 45.254 0l105.373-105.373 105.373 105.373c12.496 12.497 32.758 12.497 45.254 0s12.496-32.758 0-45.255l-105.373-105.372 105.373-105.373c12.496-12.496 12.496-32.758 0-45.254s-32.758-12.496-45.254 0l-105.373 105.372-105.373-105.372c-12.496-12.496-32.758-12.496-45.254 0s-12.496 32.758 0 45.254l105.373 105.373-105.373 105.372c-12.496 12.497-12.496 32.758 0 45.255z" />
<glyph unicode="&#xe905;" glyph-name="arrow-down-24" d="M512 821.333c23.565 0 42.667-19.103 42.667-42.667v-750.327l225.83 225.83c16.661 16.661 43.678 16.661 60.339 0s16.661-43.678 0-60.339l-297.156-297.161c-17.498-17.493-45.862-17.493-63.36 0l-297.157 297.161c-16.662 16.661-16.662 43.678 0 60.339s43.677 16.661 60.34 0l225.83-225.83v750.327c0 23.564 19.102 42.667 42.667 42.667z" />
<glyph unicode="&#xe906;" glyph-name="arrow-left-24" d="M980.885 352.444c0-23.565-19.102-42.667-42.667-42.667h-750.325l225.83-225.83c16.663-16.661 16.663-43.678 0-60.339-16.662-16.666-43.677-16.666-60.34 0l-297.158 297.156c-17.495 17.498-17.495 45.862 0 63.356l297.158 297.16c16.662 16.663 43.677 16.663 60.34 0 16.663-16.662 16.663-43.677 0-60.34l-225.83-225.829h750.325c23.565 0 42.667-19.102 42.667-42.667z" />
<glyph unicode="&#xe907;" glyph-name="arrow-right-24" d="M43.115 352.444c0 23.565 19.102 42.667 42.667 42.667h750.327l-225.83 225.829c-16.661 16.662-16.661 43.677 0 60.34s43.678 16.663 60.339 0l297.156-297.16c17.498-17.493 17.498-45.858 0-63.356l-297.156-297.156c-16.661-16.666-43.678-16.666-60.339 0-16.661 16.661-16.661 43.678 0 60.339l225.83 225.83h-750.327c-23.564 0-42.667 19.102-42.667 42.667z" />
<glyph unicode="&#xe908;" glyph-name="arrow-small-down-24" d="M755.503 455.006c16.661-16.663 16.661-43.678 0-60.339l-243.503-243.503-243.503 243.503c-16.662 16.661-16.662 43.677 0 60.339s43.677 16.662 60.34 0l183.163-183.164 183.164 183.164c16.661 16.662 43.678 16.662 60.339 0z" />
<glyph unicode="&#xe909;" glyph-name="arrow-small-right-24" d="M409.299 595.503c16.663 16.662 43.676 16.662 60.342 0l243.503-243.503-243.503-243.503c-16.666-16.661-43.679-16.661-60.342 0s-16.662 43.678 0 60.339l183.162 183.164-183.162 183.163c-16.662 16.663-16.662 43.677 0 60.34z" />
<glyph unicode="&#xe90a;" glyph-name="arrow-small-up-24" d="M268.497 248.994c-16.662 16.661-16.662 43.678 0 60.339l243.503 243.504 243.503-243.504c16.661-16.661 16.661-43.678 0-60.339s-43.678-16.661-60.339 0l-183.164 183.164-183.163-183.164c-16.663-16.661-43.677-16.661-60.34 0z" />
<glyph unicode="&#xe90b;" glyph-name="arrow-up-24" d="M512-117.333c-23.565 0-42.667 19.102-42.667 42.667v751.211l-225.83-225.83c-16.663-16.661-43.677-16.661-60.34 0-16.662 16.663-16.662 43.677 0 60.34l297.157 297.158c17.498 17.496 45.862 17.496 63.36 0l297.156-297.158c16.661-16.663 16.661-43.677 0-60.34-16.661-16.661-43.678-16.661-60.339 0l-225.83 225.83v-751.211c0-23.565-19.102-42.667-42.667-42.667z" />
<glyph unicode="&#xe90c;" glyph-name="attachment-24" d="M507.58 652.567c63.040 63.037 179.772 57.18 253.047-15.697 72.721-72.759 77.939-191.886 14.042-255.781l-291.413-291.413c-39.531-39.535-76.806-64.503-109.326-72.614-28.633-7.138-56.691-2.257-86.759 27.814-31.745 31.744-38.969 61.44-34.181 89.754 5.278 31.211 26.388 67.392 64.901 105.903l253.749 253.752c13.606 12.066 33.946 15.601 47.723 1.823 15.364-15.363 9.596-37.857-2.573-53.169l-229.105-229.103c-16.663-16.666-16.663-43.678 0-60.343 16.662-16.661 43.676-16.661 60.341 0l231.94 232.030c0 0 18.761 19.204 29.244 51.961 10.487 32.756 10.697 78.764-29.504 118.964-18.633 18.63-39.509 29.649-61.286 33.713-21.363 3.987-40.704 0.752-56.009-4.429-18.551-6.281-35.938-16.777-50.21-30.208l-254.65-254.647c-44.687-44.689-79.258-96.188-88.699-152.017-9.932-58.726 9.084-115.43 57.979-164.326 50.572-50.569 109.127-64.887 167.747-50.266 54.736 13.649 105.351 51.401 149.021 95.066l291.413 291.413c103.343 103.347 85.538 276.884-14.080 376.502l-0.077 0.075c-99.098 98.608-270.259 118.937-373.615 15.584l-314.452-314.452c-16.663-16.666-16.663-43.678 0-60.339 16.662-16.666 43.677-16.666 60.34 0l314.452 314.451z" />
<glyph unicode="&#xe90d;" glyph-name="back-24" d="M411.010 627.312l25.146-40.214c17.655-28.237-0.576-65.184-33.731-68.349l-182.543-17.422c-36.816-3.514-61.792 36.572-42.415 68.071l95.932 155.942c17.418 28.314 58.52 28.463 76.144 0.277l15.161-24.248c43.060 16.707 89.883 25.879 138.839 25.879 212.079 0 384-171.923 384-383.999 0-212.079-171.921-384-384-384-170.234 0-314.493 110.746-364.867 264.009-7.358 22.387 4.825 46.498 27.211 53.858 22.386 7.356 46.498-4.826 53.856-27.213 39.207-119.283 151.513-205.321 283.801-205.321 164.949 0 298.667 133.717 298.667 298.667 0 164.948-133.717 298.666-298.667 298.666-32.299 0-63.398-5.121-92.533-14.603z" />
<glyph unicode="&#xe90e;" glyph-name="bell-24" d="M511.996 821.333c23.565 0 42.667-19.103 42.667-42.667v-45.046c52.817-6.201 98.308-24.922 134.17-60.784 44.070-44.072 67.486-108.075 78.733-186.803 2.786-19.489 5.21-38.536 7.586-57.174 15.194-119.3 21.884-207.761 113.105-301.76 32.849-33.852 20.493-95.1-34.923-109.478-55.415-14.383-117.227-32.166-186.795-39.394-10.125-16.128-24.137-33.954-41.83-49.779-26.79-23.962-64.93-45.781-112.713-45.781s-85.921 21.82-112.711 45.781c-17.695 15.825-31.708 33.651-41.833 49.779-69.566 7.228-135.703 31.117-186.789 39.394-56.563 9.161-67.773 75.627-34.922 109.478 91.222 93.999 97.906 182.46 113.1 301.76 2.374 18.639 4.799 37.685 7.583 57.174 11.247 78.728 34.663 142.731 78.735 186.803 35.862 35.862 81.354 54.583 134.17 60.784v45.046c0 23.564 19.102 42.667 42.667 42.667zM395.499 612.497c-25.261-25.261-44.512-67.925-54.599-138.531-2.465-17.259-4.643-34.935-6.859-52.923-13.469-109.35-21.991-216.213-111.695-325.043 50.845-7.467 107.261-29.453 165.74-35.085 48.113-4.634 92.14-7.582 123.91-7.582s75.797 2.948 123.908 7.582c58.479 5.632 114.901 27.618 165.747 35.085-89.707 108.83-98.231 215.693-111.701 325.043-2.214 17.987-4.395 35.664-6.861 52.923-10.086 70.605-29.333 113.269-54.596 138.531-24.141 24.142-59.661 38.17-116.497 38.17s-92.355-14.028-116.497-38.17z" />
<glyph unicode="&#xe90f;" glyph-name="booklet-24" d="M426.667 650.667v128h384c70.694 0 128-57.308 128-128v-469.333c0-70.694-57.306-128-128-128h-170.667v-128h-426.667c-70.692 0-128 57.306-128 128v469.333c0 70.692 57.308 128 128 128h213.333zM640 138.667h170.667c23.565 0 42.667 19.102 42.667 42.667v469.333c0 23.564-19.102 42.667-42.667 42.667h-238.327l67.661-67.66v-487.006zM554.667 565.333h-341.333c-23.564 0-42.667-19.103-42.667-42.667v-469.333c0-23.565 19.103-42.667 42.667-42.667h341.333v554.667zM256 138.667c0 23.565 19.103 42.667 42.667 42.667h128c23.565 0 42.667-19.102 42.667-42.667s-19.102-42.667-42.667-42.667h-128c-23.564 0-42.667 19.102-42.667 42.667zM768 565.333c0-23.564-19.102-42.667-42.667-42.667s-42.667 19.103-42.667 42.667c0 23.564 19.102 42.667 42.667 42.667s42.667-19.103 42.667-42.667zM768 266.667c0-23.565-19.102-42.667-42.667-42.667s-42.667 19.102-42.667 42.667c0 23.565 19.102 42.667 42.667 42.667s42.667-19.102 42.667-42.667zM768 416c0-23.565-19.102-42.667-42.667-42.667s-42.667 19.102-42.667 42.667c0 23.564 19.102 42.667 42.667 42.667s42.667-19.103 42.667-42.667zM256 433.067c0 25.92 21.013 46.933 46.933 46.933h119.467c25.92 0 46.933-21.013 46.933-46.933v-119.467c0-25.92-21.013-46.933-46.933-46.933h-119.467c-25.92 0-46.933 21.013-46.933 46.933v119.467zM341.333 394.667v-42.667h42.667v42.667h-42.667z" />
<glyph unicode="&#xe910;" glyph-name="calendar-24" d="M341.333 778.667c23.564 0 42.667-19.103 42.667-42.667v-42.667h256v42.667c0 23.564 19.102 42.667 42.667 42.667s42.667-19.103 42.667-42.667v-42.667h85.333c70.694 0 128-57.308 128-128v-512c0-70.694-57.306-128-128-128h-597.333c-70.692 0-128 57.306-128 128v512c0 70.692 57.308 128 128 128h85.333v42.667c0 23.564 19.103 42.667 42.667 42.667zM298.667 608h-85.333c-23.564 0-42.667-19.103-42.667-42.667v-85.333h682.667v85.333c0 23.564-19.102 42.667-42.667 42.667h-85.333c0-23.564-19.102-42.667-42.667-42.667s-42.667 19.103-42.667 42.667h-256c0-23.564-19.103-42.667-42.667-42.667s-42.667 19.103-42.667 42.667zM853.333 394.667h-682.667v-341.333c0-23.565 19.103-42.667 42.667-42.667h597.333c23.565 0 42.667 19.102 42.667 42.667v341.333z" />
<glyph unicode="&#xe911;" glyph-name="caret-down-24" d="M733.781 407.198l-186.803-170.667c-10.432-8.397-22.485-12.531-34.539-12.531-12.049 0-24.073 4.169-33.259 12.501l-186.801 170.667c-14.764 12.164-18.792 30.565-11.511 46.432s24.444 26.4 43.448 26.4h374.926c19.021 0 36.186-10.375 43.473-26.333 7.292-15.959 4.587-34.334-8.934-46.469z" />
<glyph unicode="&#xe912;" glyph-name="cash-machine-24" d="M298.667 309.333c0 23.565 19.103 42.667 42.667 42.667s42.667-19.102 42.667-42.667c0-23.565-19.103-42.667-42.667-42.667s-42.667 19.102-42.667 42.667zM298.667 181.333c0 23.565 19.103 42.667 42.667 42.667s42.667-19.102 42.667-42.667c0-23.565-19.103-42.667-42.667-42.667s-42.667 19.102-42.667 42.667zM298.667 53.333c0 23.565 19.103 42.667 42.667 42.667s42.667-19.102 42.667-42.667c0-23.565-19.103-42.667-42.667-42.667s-42.667 19.102-42.667 42.667zM426.667 309.333c0 23.565 19.102 42.667 42.667 42.667s42.667-19.102 42.667-42.667c0-23.565-19.102-42.667-42.667-42.667s-42.667 19.102-42.667 42.667zM426.667 181.333c0 23.565 19.102 42.667 42.667 42.667s42.667-19.102 42.667-42.667c0-23.565-19.102-42.667-42.667-42.667s-42.667 19.102-42.667 42.667zM426.667 53.333c0 23.565 19.102 42.667 42.667 42.667s42.667-19.102 42.667-42.667c0-23.565-19.102-42.667-42.667-42.667s-42.667 19.102-42.667 42.667zM554.667 309.333c0 23.565 19.102 42.667 42.667 42.667s42.667-19.102 42.667-42.667c0-23.565-19.102-42.667-42.667-42.667s-42.667 19.102-42.667 42.667zM554.667 181.333c0 23.565 19.102 42.667 42.667 42.667s42.667-19.102 42.667-42.667c0-23.565-19.102-42.667-42.667-42.667s-42.667 19.102-42.667 42.667zM554.667 53.333c0 23.565 19.102 42.667 42.667 42.667s42.667-19.102 42.667-42.667c0-23.565-19.102-42.667-42.667-42.667s-42.667 19.102-42.667 42.667zM640-117.333h-341.333c-70.692 0-128 57.306-128 128v682.667c0 70.692 57.308 128 128 128h341.333c70.694 0 128-57.308 128-128v-85.333h42.667c70.694 0 128-57.308 128-128v-298.667c0-70.694-57.306-128-128-128h-42.667v-42.667c0-70.694-57.306-128-128-128zM682.667 10.667v682.667c0 23.564-19.102 42.667-42.667 42.667h-341.333c-23.564 0-42.667-19.103-42.667-42.667v-682.667c0-23.565 19.103-42.667 42.667-42.667h341.333c23.565 0 42.667 19.102 42.667 42.667zM810.667 522.667h-42.667v-85.333h85.333v42.667c0 23.564-19.102 42.667-42.667 42.667zM768 138.667h42.667c23.565 0 42.667 19.102 42.667 42.667v170.667h-85.333v-213.333zM341.333 266.667c-23.564 0-42.667 19.102-42.667 42.667s19.103 42.667 42.667 42.667c23.564 0 42.667-19.102 42.667-42.667s-19.103-42.667-42.667-42.667zM341.333 138.667c-23.564 0-42.667 19.102-42.667 42.667s19.103 42.667 42.667 42.667c23.564 0 42.667-19.102 42.667-42.667s-19.103-42.667-42.667-42.667zM341.333 10.667c-23.564 0-42.667 19.102-42.667 42.667s19.103 42.667 42.667 42.667c23.564 0 42.667-19.102 42.667-42.667s-19.103-42.667-42.667-42.667zM469.333 266.667c-23.565 0-42.667 19.102-42.667 42.667s19.102 42.667 42.667 42.667c23.565 0 42.667-19.102 42.667-42.667s-19.102-42.667-42.667-42.667zM469.333 138.667c-23.565 0-42.667 19.102-42.667 42.667s19.102 42.667 42.667 42.667c23.565 0 42.667-19.102 42.667-42.667s-19.102-42.667-42.667-42.667zM469.333 10.667c-23.565 0-42.667 19.102-42.667 42.667s19.102 42.667 42.667 42.667c23.565 0 42.667-19.102 42.667-42.667s-19.102-42.667-42.667-42.667zM597.333 266.667c-23.565 0-42.667 19.102-42.667 42.667s19.102 42.667 42.667 42.667c23.565 0 42.667-19.102 42.667-42.667s-19.102-42.667-42.667-42.667zM597.333 138.667c-23.565 0-42.667 19.102-42.667 42.667s19.102 42.667 42.667 42.667c23.565 0 42.667-19.102 42.667-42.667s-19.102-42.667-42.667-42.667zM597.333 10.667c-23.565 0-42.667 19.102-42.667 42.667s19.102 42.667 42.667 42.667c23.565 0 42.667-19.102 42.667-42.667s-19.102-42.667-42.667-42.667zM298.667 608c0 47.128 38.205 85.333 85.333 85.333h170.667c47.13 0 85.333-38.205 85.333-85.333v-128c0-47.13-38.204-85.333-85.333-85.333h-170.667c-47.128 0-85.333 38.204-85.333 85.333v128zM554.667 608h-170.667v-128h170.667v128z" />
<glyph unicode="&#xe913;" glyph-name="clock-24" d="M512 736c-212.077 0-384-171.923-384-384 0-212.079 171.923-384 384-384 212.079 0 384 171.921 384 384 0 212.077-171.921 384-384 384zM42.667 352c0 259.206 210.128 469.333 469.333 469.333 259.204 0 469.333-210.128 469.333-469.333 0-259.204-210.129-469.333-469.333-469.333-259.206 0-469.333 210.129-469.333 469.333zM512 608c23.565 0 42.667-19.103 42.667-42.667v-189.175l129.237-78.985c20.207-12.126 26.756-38.332 14.635-58.539-12.126-20.207-38.332-26.756-58.539-14.635l-170.667 103.842v237.491c0 23.564 19.102 42.667 42.667 42.667z" />
<glyph unicode="&#xe914;" glyph-name="cloud-24" d="M482.786 639.789c20.476-4.44 36.599-14.27 49.664-26.673 27.341-25.964 39.957-62.028 43.708-75.184 8.422-29.535 41.165-42.013 66.624-29.412 8.043 3.981 28.885 12.621 53.632 11.799 22.643-0.752 51.921-9.375 80.934-45.641 31.091-38.86 35.721-66.631 34.948-82.751-0.811-16.93-7.927-27.652-10.551-31.044-16.085-20.826-12.625-52.489 10.799-68.454 7.987-5.444 28.186-20.634 44.032-43.247 15.428-22.020 25.327-48.785 18.918-80.815-6.234-31.164-30.921-49.869-64.986-61.222-32.704-10.906-63.902-11.145-63.902-11.149 0 0 0.021 0 0.060 0h-485.353c-1.972 0-2.671 0.119-2.786 0.141-11.427 2.091-45.454 10.074-75.723 32.508-28.398 21.043-54.804 55.445-54.804 116.689 0 61.184 26.356 95.573 54.714 116.621 30.225 22.434 64.229 30.443 75.748 32.559 28.027 5.146 44.843 33.523 36.691 60.298-3.472 11.404-11.683 45.501-2.575 81.004 8.19 31.926 31.816 71.34 104.915 95.705 37.081 12.36 64.776 12.719 85.294 8.269zM644.045 599.386c-10.556 23.028-27.294 51.353-52.838 75.61-22.596 21.457-52.335 39.948-90.334 48.189-37.952 8.23-81.345 5.63-130.365-10.709-99.273-33.090-144.852-94.12-160.588-155.454-8.536-33.272-7.793-64.628-4.622-88.544-21.416-7.279-47.966-19.092-73.443-37.999-47.181-35.021-89.189-93.572-89.189-185.143 0-91.674 42.097-150.246 89.329-185.25 45.361-33.617 94.089-44.762 111.166-47.885 6.845-1.254 13.046-1.536 18.152-1.536h485.353c1.63 0 44.361 0.034 90.833 15.526 45.935 15.313 106.573 49.946 121.673 125.44 12.25 61.252-8.145 111.458-32.713 146.522-12.531 17.882-26.5 32.41-38.75 43.413 4.975 12.663 8.951 28.16 9.822 46.276 1.941 40.491-11.925 88.119-53.547 140.145-45.158 56.448-98.108 76.071-144.742 77.619-20.779 0.69-39.59-2.21-55.198-6.219z" />
<glyph unicode="&#xe915;" glyph-name="columns-24" d="M85.333 736c0 23.564 18.041 42.667 40.296 42.667h282.074c22.257 0 40.296-19.103 40.296-42.667s-18.039-42.667-40.296-42.667h-282.074c-22.255 0-40.296 19.103-40.296 42.667zM85.333 480c0 23.564 18.041 42.667 40.296 42.667h282.074c22.257 0 40.296-19.103 40.296-42.667s-18.039-42.667-40.296-42.667h-282.074c-22.255 0-40.296 19.103-40.296 42.667zM85.333 224c0 23.565 18.041 42.667 40.296 42.667h282.074c22.257 0 40.296-19.102 40.296-42.667s-18.039-42.667-40.296-42.667h-282.074c-22.255 0-40.296 19.102-40.296 42.667zM85.333-32c0 23.565 18.041 42.667 40.296 42.667h282.074c22.257 0 40.296-19.102 40.296-42.667s-18.039-42.667-40.296-42.667h-282.074c-22.255 0-40.296 19.102-40.296 42.667zM576 736c0 23.564 18.039 42.667 40.294 42.667h282.078c22.255 0 40.294-19.103 40.294-42.667s-18.039-42.667-40.294-42.667h-282.078c-22.255 0-40.294 19.103-40.294 42.667zM576 480c0 23.564 18.039 42.667 40.294 42.667h282.078c22.255 0 40.294-19.103 40.294-42.667s-18.039-42.667-40.294-42.667h-282.078c-22.255 0-40.294 19.103-40.294 42.667zM576 224c0 23.565 18.039 42.667 40.294 42.667h282.078c22.255 0 40.294-19.102 40.294-42.667s-18.039-42.667-40.294-42.667h-282.078c-22.255 0-40.294 19.102-40.294 42.667zM576-32c0 23.565 18.039 42.667 40.294 42.667h282.078c22.255 0 40.294-19.102 40.294-42.667s-18.039-42.667-40.294-42.667h-282.078c-22.255 0-40.294 19.102-40.294 42.667z" />
<glyph unicode="&#xe916;" glyph-name="comments-24" d="M235.426 560.948c-69.201-52.472-107.426-121.208-107.426-192.876 0-71.663 38.224-140.399 107.426-192.875 69.164-52.442 166.809-86.238 276.574-86.238 56.384 0 109.734 8.926 157.726 24.828l15.77 5.222 174.805-83.844-31.305 175.1 13.205 16.115c35.012 42.722 53.798 91.217 53.798 141.692 0 71.668-38.225 140.404-107.426 192.876-69.163 52.443-166.81 86.242-276.574 86.242-109.766 0-207.411-33.798-276.574-86.242zM185.176 632.727c85.26 64.649 200.948 103.273 326.824 103.273s241.566-38.624 326.822-103.273c85.222-64.619 142.511-157.644 142.511-264.655 0-67.341-22.831-129.54-61.141-182.391l54.174-303.014-294.865 141.431c-52.143-15.514-108.638-23.949-167.501-23.949-125.876 0-241.564 38.622-326.824 103.27-85.221 64.619-142.51 157.645-142.51 264.653 0 107.011 57.289 200.036 142.51 264.655z" />
<glyph unicode="&#xe917;" glyph-name="copy-24" d="M512 10.667c-23.565 0-42.667 19.102-42.667 42.667v384c0 23.564 19.102 42.667 42.667 42.667h298.667c23.565 0 42.667-19.103 42.667-42.667v-384c0-23.565-19.102-42.667-42.667-42.667h-298.667zM810.667-74.667c70.69 0 128 57.306 128 128v384c0 70.692-57.306 128-128 128h-298.667c-70.694 0-128-57.308-128-128v-384c0-70.694 57.306-128 128-128h298.667zM298.667 138.667c0-23.565-19.102-42.667-42.667-42.667h-42.667c-70.692 0-128 57.306-128 128v426.667c0 70.692 57.308 128 128 128h298.667c47.13 0 85.333-38.205 85.333-85.333 0-23.564-19.102-42.667-42.667-42.667s-42.667 19.102-42.667 42.667h-298.667c-23.564 0-42.667-19.103-42.667-42.667v-426.667c0-23.565 19.103-42.667 42.667-42.667h42.667c23.564 0 42.667-19.102 42.667-42.667z" />
<glyph unicode="&#xe918;" glyph-name="copyright-24" d="M512 736c-212.077 0-384-171.923-384-384 0-212.079 171.923-384 384-384 212.079 0 384 171.921 384 384 0 212.077-171.921 384-384 384zM42.667 352c0 259.206 210.128 469.333 469.333 469.333 259.204 0 469.333-210.128 469.333-469.333 0-259.204-210.129-469.333-469.333-469.333-259.206 0-469.333 210.129-469.333 469.333zM440.828 575.613c48.649 15.485 101.022 14.681 149.171-2.289 48.154-16.97 89.459-49.181 117.649-91.746l-71.147-47.12c-17.937 27.088-44.224 47.586-74.863 58.385-30.643 10.799-63.97 11.311-94.929 1.456s-57.862-29.536-76.624-56.060c-18.762-26.523-28.363-58.442-27.345-90.915s12.598-63.731 32.985-89.028c20.387-25.297 48.465-43.255 79.983-51.153 31.514-7.893 64.747-5.299 94.652 7.398s54.852 34.803 71.061 62.959l73.958-42.573c-25.472-44.245-64.678-78.98-111.671-98.931-46.997-19.955-99.217-24.034-148.74-11.627s-93.65 40.627-125.686 80.38c-32.036 39.753-50.234 88.87-51.833 139.9s13.487 101.19 42.971 142.87c29.484 41.681 71.757 72.609 120.408 88.094z" />
<glyph unicode="&#xe919;" glyph-name="cross-24" d="M838.903 677.897c18.052-18.054 18.052-47.326 0-65.381l-261.525-261.523 261.525-261.525c18.052-18.052 18.052-47.326 0-65.382-18.057-18.052-47.326-18.052-65.382 0l-261.525 261.525-261.522-261.525c-18.054-18.052-47.326-18.052-65.381 0-18.055 18.057-18.055 47.33 0 65.382l261.524 261.525-261.524 261.523c-18.055 18.054-18.055 47.326 0 65.381s47.326 18.054 65.381 0l261.522-261.525 261.525 261.525c18.057 18.054 47.326 18.054 65.382 0z" />
<glyph unicode="&#xe91a;" glyph-name="dash-24" d="M85.333 352c0 23.565 19.103 42.667 42.667 42.667h768c23.565 0 42.667-19.102 42.667-42.667s-19.102-42.667-42.667-42.667h-768c-23.564 0-42.667 19.102-42.667 42.667z" />
<glyph unicode="&#xe91b;" glyph-name="documents-24" d="M384 650.667c0 70.692 57.306 128 128 128h213.333l213.333-225.882v-371.451c0-70.694-57.306-128-128-128h-170.667c0-70.694-57.306-128-128-128h-298.667c-70.692 0-128 57.306-128 128v469.333c0 70.692 57.308 128 128 128h170.667zM384 181.333v384h-170.667c-23.564 0-42.667-19.103-42.667-42.667v-469.333c0-23.565 19.103-42.667 42.667-42.667h298.667c23.565 0 42.667 19.102 42.667 42.667h-42.667c-70.694 0-128 57.306-128 128zM780.996 595.451h-12.996v13.76l12.996-13.76zM682.667 693.333h-170.667c-23.565 0-42.667-19.103-42.667-42.667v-469.333c0-23.565 19.102-42.667 42.667-42.667h298.667c23.565 0 42.667 19.102 42.667 42.667v328.784h-106.667c-35.345 0-64 28.654-64 64v119.216z" />
<glyph unicode="&#xe91c;" glyph-name="dorms-24" d="M405.332 608c0-23.564-19.102-42.667-42.667-42.667s-42.667 19.102-42.667 42.667c0 23.564 19.103 42.667 42.667 42.667s42.667-19.103 42.667-42.667zM405.332 437.333c0-23.565-19.102-42.667-42.667-42.667s-42.667 19.102-42.667 42.667c0 23.564 19.103 42.667 42.667 42.667s42.667-19.103 42.667-42.667zM405.332 266.667c0-23.565-19.102-42.667-42.667-42.667s-42.667 19.102-42.667 42.667c0 23.565 19.103 42.667 42.667 42.667s42.667-19.102 42.667-42.667zM554.667 608c0-23.564-19.106-42.667-42.667-42.667-23.565 0-42.667 19.102-42.667 42.667s19.102 42.667 42.667 42.667c23.561 0 42.667-19.103 42.667-42.667zM554.667 437.333c0-23.565-19.106-42.667-42.667-42.667-23.565 0-42.667 19.102-42.667 42.667s19.102 42.667 42.667 42.667c23.561 0 42.667-19.103 42.667-42.667zM554.667 266.667c0-23.565-19.106-42.667-42.667-42.667-23.565 0-42.667 19.102-42.667 42.667s19.102 42.667 42.667 42.667c23.561 0 42.667-19.102 42.667-42.667zM704 608c0-23.564-19.106-42.667-42.667-42.667-23.565 0-42.667 19.102-42.667 42.667s19.102 42.667 42.667 42.667c23.561 0 42.667-19.103 42.667-42.667zM704 437.333c0-23.565-19.106-42.667-42.667-42.667-23.565 0-42.667 19.102-42.667 42.667s19.102 42.667 42.667 42.667c23.561 0 42.667-19.103 42.667-42.667zM704 266.667c0-23.565-19.106-42.667-42.667-42.667-23.565 0-42.667 19.102-42.667 42.667s19.102 42.667 42.667 42.667c23.561 0 42.667-19.102 42.667-42.667zM170.667 693.333c0 70.692 57.308 128 128 128h426.667c70.694 0 128-57.308 128-128v-640c0-70.694-57.306-128-128-128h-89.95c-47.97 0-90.039 32.021-102.818 78.259-5.769 20.873-35.362 20.873-41.131 0-12.779-46.238-54.848-78.259-102.818-78.259h-89.95c-70.692 0-128 57.306-128 128v640zM298.667 736c-23.564 0-42.667-19.103-42.667-42.667v-640c0-23.565 19.103-42.667 42.667-42.667h89.95c9.595 0 18.010 6.404 20.566 15.654 28.833 104.346 176.801 104.346 205.635 0 2.556-9.25 10.97-15.654 20.565-15.654h89.95c23.565 0 42.667 19.102 42.667 42.667v640c0 23.564-19.102 42.667-42.667 42.667h-426.667z" />
<glyph unicode="&#xe91d;" glyph-name="download-24" d="M512 778.667c23.565 0 42.667-19.103 42.667-42.667v-494.327l119.164 119.164c16.661 16.661 43.678 16.661 60.339 0s16.661-43.678 0-60.339l-184.457-184.457c-20.83-20.83-54.596-20.83-75.426 0l-184.457 184.457c-16.663 16.661-16.663 43.678 0 60.339s43.677 16.661 60.34 0l119.164-119.164v494.327c0 23.564 19.102 42.667 42.667 42.667zM213.333 53.333c23.564 0 42.667-19.102 42.667-42.667v-21.333c0-11.78 9.551-21.333 21.333-21.333h469.333c11.78 0 21.333 9.553 21.333 21.333v21.333c0 23.565 19.102 42.667 42.667 42.667s42.667-19.102 42.667-42.667v-21.333c0-58.91-47.757-106.667-106.667-106.667h-469.333c-58.91 0-106.667 47.757-106.667 106.667v21.333c0 23.565 19.103 42.667 42.667 42.667z" />
<glyph unicode="&#xe91e;" glyph-name="drag-dots-24" d="M426.667 32c0-35.345-28.654-64-64-64s-64 28.655-64 64c0 35.345 28.654 64 64 64s64-28.655 64-64zM426.667 672c0-35.346-28.654-64-64-64s-64 28.654-64 64c0 35.346 28.654 64 64 64s64-28.654 64-64zM725.333 672c0-35.346-28.655-64-64-64s-64 28.654-64 64c0 35.346 28.655 64 64 64s64-28.654 64-64zM426.667 352c0-35.345-28.654-64-64-64s-64 28.655-64 64c0 35.345 28.654 64 64 64s64-28.655 64-64zM725.333 352c0-35.345-28.655-64-64-64s-64 28.655-64 64c0 35.345 28.655 64 64 64s64-28.655 64-64zM725.333 32c0-35.345-28.655-64-64-64s-64 28.655-64 64c0 35.345 28.655 64 64 64s64-28.655 64-64z" />
<glyph unicode="&#xe91f;" glyph-name="exclamation-mark-24" d="M554.667 138.667c0-23.565-19.102-42.667-42.667-42.667s-42.667 19.102-42.667 42.667c0 23.565 19.102 42.667 42.667 42.667s42.667-19.102 42.667-42.667zM512-32c-212.077 0-384 171.921-384 384 0 212.077 171.923 384 384 384 212.079 0 384-171.923 384-384 0-212.079-171.921-384-384-384zM512-117.333c259.204 0 469.333 210.129 469.333 469.333 0 259.206-210.129 469.333-469.333 469.333-259.206 0-469.333-210.128-469.333-469.333 0-259.204 210.128-469.333 469.333-469.333zM512 608c23.565 0 42.667-19.103 42.667-42.667v-256c0-23.565-19.102-42.667-42.667-42.667s-42.667 19.102-42.667 42.667v256c0 23.564 19.102 42.667 42.667 42.667z" />
<glyph unicode="&#xe920;" glyph-name="exit-24" d="M42.667 565.333c0 70.692 57.308 128 128 128h258.372c69.38 0 125.628-56.246 125.628-125.629 0-23.564-19.102-42.667-42.667-42.667s-42.667 19.102-42.667 42.667c0 22.255-18.039 40.296-40.294 40.296h-258.372c-23.564 0-42.667-19.103-42.667-42.667v-426.667c0-23.565 19.103-42.667 42.667-42.667h258.372c22.255 0 40.294 18.039 40.294 40.294 0 23.565 19.102 42.667 42.667 42.667s42.667-19.102 42.667-42.667c0-69.38-56.247-125.628-125.628-125.628h-258.372c-70.692 0-128 57.306-128 128v426.667zM737.83 552.837c16.661 16.662 43.678 16.662 60.339 0l163.123-163.124c20.83-20.83 20.83-54.596 0-75.426l-163.123-163.123c-16.661-16.661-43.678-16.661-60.339 0s-16.661 43.678 0 60.339l97.83 97.83h-451.661c-23.564 0-42.667 19.102-42.667 42.667s19.103 42.667 42.667 42.667h451.661l-97.83 97.83c-16.661 16.663-16.661 43.677 0 60.34z" />
<glyph unicode="&#xe921;" glyph-name="expand-24" d="M128 480c-23.564 0-42.667 19.102-42.667 42.667v202.667c0 29.455 23.878 53.333 53.333 53.333h202.667c23.564 0 42.667-19.102 42.667-42.667s-19.103-42.667-42.667-42.667h-110.327l161.83-161.83c16.662-16.663 16.662-43.677 0-60.34s-43.677-16.662-60.34 0l-161.83 161.83v-110.327c0-23.564-19.103-42.667-42.667-42.667zM896 224c23.565 0 42.667-19.102 42.667-42.667v-202.667c0-29.457-23.876-53.333-53.333-53.333h-202.667c-23.565 0-42.667 19.102-42.667 42.667s19.102 42.667 42.667 42.667h110.327l-161.83 161.83c-16.661 16.661-16.661 43.678 0 60.339s43.678 16.661 60.339 0l161.83-161.83v110.327c0 23.565 19.102 42.667 42.667 42.667zM640 736c0 23.564 19.102 42.667 42.667 42.667h202.667c29.457 0 53.333-23.878 53.333-53.333v-202.667c0-23.564-19.102-42.667-42.667-42.667s-42.667 19.102-42.667 42.667v110.327l-161.83-161.83c-16.661-16.662-43.678-16.662-60.339 0s-16.661 43.677 0 60.34l161.83 161.83h-110.327c-23.565 0-42.667 19.103-42.667 42.667zM384-32c0-23.565-19.102-42.667-42.667-42.667h-202.667c-29.455 0-53.333 23.876-53.333 53.333v202.667c0 23.565 19.103 42.667 42.667 42.667s42.667-19.102 42.667-42.667v-110.327l161.83 161.83c16.663 16.661 43.677 16.661 60.34 0s16.662-43.678 0-60.339l-161.83-161.83h110.327c23.564 0 42.667-19.102 42.667-42.667z" />
<glyph unicode="&#xe922;" glyph-name="external-link-24" d="M597.333 736c0 23.564 19.102 42.667 42.667 42.667h247.467c28.275 0 51.2-22.923 51.2-51.2v-247.467c0-23.564-19.102-42.667-42.667-42.667s-42.667 19.103-42.667 42.667v149.333l-353.83-350.17c-16.661-16.661-43.678-16.661-60.339 0-16.663 16.661-16.663 43.678 0 60.339l350.17 353.83h-149.333c-23.565 0-42.667 19.103-42.667 42.667zM213.333 608c-23.564 0-42.667-19.103-42.667-42.667v-512c0-23.565 19.103-42.667 42.667-42.667h512c23.565 0 42.667 19.102 42.667 42.667v170.667c0 23.565 19.102 42.667 42.667 42.667s42.667-19.102 42.667-42.667v-170.667c0-70.694-57.306-128-128-128h-512c-70.692 0-128 57.306-128 128v512c0 70.692 57.308 128 128 128h170.667c23.564 0 42.667-19.103 42.667-42.667s-19.103-42.667-42.667-42.667h-170.667z" />
<glyph unicode="&#xe923;" glyph-name="file-24" d="M170.667 693.333c0 70.692 57.308 128 128 128h273.673l280.994-280.994v-529.673c0-70.694-57.306-128-128-128h-426.667c-70.692 0-128 57.306-128 128v682.667zM298.667 736c-23.564 0-42.667-19.103-42.667-42.667v-682.667c0-23.565 19.103-42.667 42.667-42.667h426.667c23.565 0 42.667 19.102 42.667 42.667v469.333h-128c-70.694 0-128 57.308-128 128v128h-213.333zM597.333 675.66l110.327-110.327h-67.661c-23.565 0-42.667 19.103-42.667 42.667v67.66z" />
<glyph unicode="&#xe924;" glyph-name="graduation-cap-24" d="M512.759 606.419l301.717-109.576-301.717-140.884-301.716 140.884 301.716 109.576zM939.439 477.373c0 0 16.977 9.15 21.961 19.47 11.213 23.195-11.046 46.315-37.039 54.586l-395.43 139.394c-10.522 3.347-21.82 3.348-32.341 0l-395.429-139.394c-47.493-15.112-50.151-81.315-4.023-100.185l116.956-47.847v-259.998c0-13.022 4.852-27.58 16.815-38.537 23.86-21.85 75.922-93.666 281.852-93.666s257.993 71.817 281.852 93.666c11.964 10.957 16.815 25.515 16.815 38.537v259.998l42.679 23.27v-160c0-3.631 0.371-7.245 1.105-10.786l-17.933-35.866c-10.539-21.073-1.997-46.703 19.081-57.242 13.308-6.652 28.429-5.7 40.418 1.207 10.202-5.879 22.775-7.539 34.825-3.524 22.353 7.454 34.436 31.616 26.982 53.973l-19.145 57.429v205.514zM726.093 368.491v-209.365c-27.264-19.554-61.743-62.596-213.333-62.596-151.592 0-186.068 43.042-213.333 62.596v209.365l193.139-96.469c12.941-5.295 27.447-5.295 40.388 0l193.139 96.469z" />
<glyph unicode="&#xe925;" glyph-name="info-24" d="M512.004 96c-23.565 0-42.667 19.102-42.667 42.667v256c0 23.565 19.102 42.667 42.667 42.667s42.667-19.102 42.667-42.667v-256c0-23.565-19.102-42.667-42.667-42.667zM469.333 565.333c0 23.564 19.102 42.667 42.667 42.667s42.667-19.103 42.667-42.667c0-23.564-19.102-42.667-42.667-42.667s-42.667 19.103-42.667 42.667zM512 736c-212.077 0-384-171.923-384-384 0-212.079 171.923-384 384-384 212.079 0 384 171.921 384 384 0 212.077-171.921 384-384 384zM42.667 352c0 259.206 210.128 469.333 469.333 469.333 259.204 0 469.333-210.128 469.333-469.333 0-259.204-210.129-469.333-469.333-469.333-259.206 0-469.333 210.129-469.333 469.333z" />
<glyph unicode="&#xe926;" glyph-name="link-24" d="M491.554 10.406c-96.905-96.905-252.398-109.641-346.953-15.083-94.554 94.554-81.821 250.048 15.085 346.953l90.51 90.509c96.906 96.906 250.399 111.641 362.041 0 0 0-50.62-39.893-90.513-30.17 0 0-20.395 12.036-41.946 18.394-53.722 15.834-119.486 1.19-169.242-48.563l-90.51-90.509c-69.718-69.717-70.492-170.867-15.085-226.274s156.556-54.635 226.274 15.083l60.339 60.339c0 0 75.426-15.083 135.765 15.087-15.083-15.087-135.765-135.765-135.765-135.765zM521.724 704.314c96.909 96.905 252.399 109.639 346.957 15.085 94.554-94.554 81.818-250.048-15.087-346.953l-90.509-90.509c-96.905-96.909-250.398-111.642-362.039 0 0 0 50.615 39.893 90.509 30.17 0 0 20.395-12.041 41.95-18.394 53.722-15.834 119.484-1.195 169.242 48.563l90.509 90.509c69.717 69.717 70.49 170.867 15.083 226.274s-156.553 54.633-226.274-15.085l-60.339-60.34c0 0-75.422 15.085-135.763-15.085 15.085 15.085 135.763 135.764 135.763 135.764z" />
<glyph unicode="&#xe927;" glyph-name="memory-stick-24" d="M617.596 759.294c41.655 41.656 109.193 41.656 150.848 0l150.852-150.849c41.655-41.656 41.655-109.193 0-150.849l-437.466-437.465-30.17 30.17-150.848-150.848-241.359 241.361 150.85 150.848-30.17 30.17 437.463 437.463zM270.642 231.322l-90.51-90.509 120.68-120.683 90.51 90.513-120.68 120.678zM708.105 698.954c-8.329 8.331-21.837 8.331-30.17 0l-377.123-377.124 181.018-181.018 377.126 377.122c8.329 8.331 8.329 21.839 0 30.17l-150.852 150.849z" />
<glyph unicode="&#xe928;" glyph-name="menu-dots-24" d="M576-10.667c0-35.345-28.655-64-64-64s-64 28.655-64 64c0 35.345 28.655 64 64 64s64-28.655 64-64zM576 714.667c0-35.346-28.655-64-64-64s-64 28.654-64 64c0 35.346 28.655 64 64 64s64-28.654 64-64zM576 352c0-35.345-28.655-64-64-64s-64 28.655-64 64c0 35.345 28.655 64 64 64s64-28.655 64-64z" />
<glyph unicode="&#xe929;" glyph-name="mobile-payment-24" d="M597.333 300.045h32.772v-22.682h-32.772v-34.287h32.772v-19.076h48.666v19.076h51.755v34.287h-51.755v22.682h42.829c18.278 0 34.018 2.684 47.211 8.060 13.303 5.372 23.578 13.137 30.822 23.296 7.356 10.159 11.034 22.319 11.034 36.484 0 13.478-3.571 25.442-10.709 35.895s-17.357 18.658-30.66 24.614c-13.193 5.961-29.094 8.939-47.697 8.939h-91.494v-103.002h-32.772v-34.287zM744.478 338.577c-5.948-2.833-13.952-4.245-24.013-4.245h-41.694v68.57h42.995c9.084 0 16.546-1.66 22.387-4.983 5.948-3.221 10.325-7.518 13.137-12.894 2.923-5.274 4.382-11.085 4.382-17.434 0-6.447-1.353-12.211-4.053-17.289-2.705-4.983-7.087-8.892-13.141-11.725zM341.333 778.667h256c98.816 0 170.667-82.447 170.667-178.088 122.313-28.893 213.333-138.773 213.333-269.912 0-131.725-91.836-242.001-214.972-270.293-11.059-76.369-76.791-135.040-156.228-135.040h-268.8c-94.257 0-170.667 76.412-170.667 170.667v512c0 94.257 76.41 170.667 170.667 170.667zM597.333 693.333h-11.418c-14.754-25.506-42.33-42.667-73.916-42.667h-85.333c-31.585 0-59.163 17.161-73.917 42.667h-11.416c-47.128 0-85.333-38.205-85.333-85.333v-512c0-47.13 38.205-85.333 85.333-85.333h268.8c29.922 0 55.612 18.116 66.697 43.981-140.416 13.653-250.163 132.019-250.163 276.019 0 145.989 112.802 265.632 256 276.525 0 46.806-38.187 86.141-85.333 86.141zM704 138.667c106.039 0 192 85.961 192 192s-85.961 192-192 192c-106.039 0-192-85.961-192-192s85.961-192 192-192z" />
<glyph unicode="&#xe92a;" glyph-name="paste-24" d="M597.333 309.333c0 23.565 19.102 42.667 42.667 42.667 0 0 61.769 0 85.333 0s42.667-19.102 42.667-42.667c0-23.565-19.102-42.667-42.667-42.667h-85.333c-23.565 0-42.667 19.102-42.667 42.667zM597.333 138.667c0 23.565 19.102 42.667 42.667 42.667 0 0 61.769 0 85.333 0s42.667-19.102 42.667-42.667c0-23.565-19.102-42.667-42.667-42.667h-85.333c-23.565 0-42.667 19.102-42.667 42.667zM426.667 394.667c0 70.692 57.306 128 128 128h256c70.694 0 128-57.308 128-128v-341.333c0-70.694-57.306-128-128-128h-256c-70.694 0-128 57.306-128 128v341.333zM554.667 437.333c-23.565 0-42.667-19.102-42.667-42.667v-341.333c0-23.565 19.102-42.667 42.667-42.667h256c23.565 0 42.667 19.102 42.667 42.667v341.333c0 23.565-19.102 42.667-42.667 42.667h-256zM362.667 821.333c-59.571 0-110.995-34.881-134.962-85.333h-14.371c-70.692 0-128-57.308-128-128v-554.667c0-70.694 57.308-128 128-128h85.333c23.564 0 42.667 19.102 42.667 42.667s-19.103 42.667-42.667 42.667h-85.333c-23.564 0-42.667 19.102-42.667 42.667v554.667c0 24.919 20.797 42.667 44.8 42.667 9.883-48.688 52.928-85.333 104.533-85.333h170.667c50.33 0 94.191 36.293 104.533 85.333h44.8c0-23.564 19.102-42.667 42.667-42.667s42.667 19.103 42.667 42.667c0 47.128-38.204 85.333-85.333 85.333h-57.037c-23.966 50.452-75.392 85.333-134.963 85.333h-85.333zM298.667 672c0 35.346 28.654 64 64 64h85.333c35.345 0 64-28.654 64-64 0-11.782-9.553-21.333-21.333-21.333h-170.667c-11.782 0-21.333 9.551-21.333 21.333z" />
<glyph unicode="&#xe92b;" glyph-name="pause-24" d="M618.667 522.667c23.565 0 42.667-19.103 42.667-42.667v-256c0-23.565-19.102-42.667-42.667-42.667s-42.667 19.102-42.667 42.667v256c0 23.564 19.102 42.667 42.667 42.667zM405.333 522.667c23.565 0 42.667-19.103 42.667-42.667v-256c0-23.565-19.102-42.667-42.667-42.667s-42.667 19.102-42.667 42.667v256c0 23.564 19.103 42.667 42.667 42.667zM512-32c-212.077 0-384 171.921-384 384 0 212.077 171.923 384 384 384 212.079 0 384-171.923 384-384 0-212.079-171.921-384-384-384zM512-117.333c259.204 0 469.333 210.129 469.333 469.333 0 259.206-210.129 469.333-469.333 469.333-259.206 0-469.333-210.128-469.333-469.333 0-259.204 210.128-469.333 469.333-469.333z" />
<glyph unicode="&#xe92c;" glyph-name="payment-24" d="M211.604 706.373c17.293 68.553 86.88 110.081 155.418 92.791l496.45-125.235c68.544-17.292 110.093-86.876 92.8-155.421l-102.938-408.061v-14.447c0-70.694-57.306-128-128-128h-512c-70.692 0-128 57.306-128 128v341.333c0 57.158 37.466 105.567 89.179 122.007l37.091 147.033zM264.031 565.333h461.302c64.806 0 118.362-48.16 126.831-110.642l21.367 84.69c5.764 22.848-8.085 46.043-30.933 51.807l-496.45 125.235c-22.856 5.766-46.042-8.082-51.804-30.923l-30.314-120.167zM768 394.667v42.667c0 23.564-19.102 42.666-42.667 42.666h-512c-23.564 0-42.667-19.103-42.667-42.666v-42.667h597.333zM170.667 309.333v-213.333c0-23.565 19.103-42.667 42.667-42.667h512c20.049 0 36.864 13.824 41.438 32.461l-7.206 1.818 8.435 33.434v188.288h-597.333z" />
<glyph unicode="&#xe92d;" glyph-name="pensil-24" d="M676.228 748.497c49.988 49.987 131.034 49.987 181.022 0l30.17-30.17c49.984-49.987 49.984-131.032 0-181.019l-525.754-525.753c-16.963-16.964-38.353-28.817-61.728-34.21l-138.998-32.077c-46.085-10.637-87.387 30.665-76.752 76.749l32.077 138.999c5.394 23.377 17.249 44.766 34.212 61.73l525.751 525.751zM736.567 507.138l-90.509 90.51-435.242-435.245c-5.654-5.653-9.606-12.783-11.404-20.574l-24.401-105.741 105.739 24.401c7.792 1.801 14.922 5.751 20.576 11.405l435.241 435.244z" />
<glyph unicode="&#xe92e;" glyph-name="pensil-line-24" d="M676.228 748.497c49.988 49.987 131.034 49.987 181.022 0l30.17-30.17c49.984-49.987 49.984-131.032 0-181.019l-525.754-525.753c-16.963-16.964-38.353-28.817-61.728-34.21l-138.998-32.077c-46.085-10.637-87.387 30.665-76.752 76.749l32.077 138.999c5.394 23.377 17.249 44.766 34.212 61.73l525.751 525.751zM736.567 507.138l-90.509 90.51-435.242-435.245c-5.654-5.653-9.606-12.783-11.404-20.574l-24.401-105.741 105.739 24.401c7.792 1.801 14.922 5.751 20.576 11.405l435.241 435.244zM469.333 10.667c0 23.565 19.102 42.667 42.667 42.667h341.333c23.565 0 42.667-19.102 42.667-42.667s-19.102-42.667-42.667-42.667h-341.333c-23.565 0-42.667 19.102-42.667 42.667z" />
<glyph unicode="&#xe92f;" glyph-name="play-24" d="M512-32c-212.077 0-384 171.921-384 384 0 212.077 171.923 384 384 384 212.079 0 384-171.923 384-384 0-212.079-171.921-384-384-384zM512-117.333c259.204 0 469.333 210.129 469.333 469.333 0 259.206-210.129 469.333-469.333 469.333-259.206 0-469.333-210.128-469.333-469.333 0-259.204 210.128-469.333 469.333-469.333zM700.864 389.299c29.261-16.256 29.261-58.342 0-74.598l-253.478-140.817c-28.437-15.799-63.386 4.762-63.386 37.295v281.642c0 32.532 34.949 53.097 63.386 37.297l253.478-140.819z" />
<glyph unicode="&#xe930;" glyph-name="plus-24" d="M512 778.667c23.565 0 42.667-19.103 42.667-42.667v-341.333h341.333c23.565 0 42.667-19.102 42.667-42.667s-19.102-42.667-42.667-42.667h-341.333v-341.333c0-23.565-19.102-42.667-42.667-42.667s-42.667 19.102-42.667 42.667v341.333h-341.333c-23.564 0-42.667 19.102-42.667 42.667s19.103 42.667 42.667 42.667h341.333v341.333c0 23.564 19.102 42.667 42.667 42.667z" />
<glyph unicode="&#xe931;" glyph-name="print-24" d="M256 650.667c0 70.692 57.308 128 128 128h256c70.694 0 128-57.308 128-128v-85.333h42.667c70.694 0 128-57.308 128-128v-256c0-70.694-57.306-128-128-128h-42.667c0-70.694-57.306-128-128-128h-256c-70.692 0-128 57.306-128 128h-42.667c-70.692 0-128 57.306-128 128v256c0 70.692 57.308 128 128 128h42.667v85.333zM341.333 565.333h341.333v85.333c0 23.564-19.102 42.667-42.667 42.667h-256c-23.564 0-42.667-19.103-42.667-42.667v-85.333zM256 138.667v85.333c0 70.694 57.308 128 128 128h256c70.694 0 128-57.306 128-128v-85.333h42.667c23.565 0 42.667 19.102 42.667 42.667v256c0 23.564-19.102 42.667-42.667 42.667h-597.333c-23.564 0-42.667-19.103-42.667-42.667v-256c0-23.565 19.103-42.667 42.667-42.667h42.667zM384 266.667c-23.564 0-42.667-19.102-42.667-42.667v-170.667c0-23.565 19.103-42.667 42.667-42.667h256c23.565 0 42.667 19.102 42.667 42.667v170.667c0 23.565-19.102 42.667-42.667 42.667h-256z" />
<glyph unicode="&#xe932;" glyph-name="question-mark-24" d="M448.009 494.011c0 0-0.009 0.070-0.009 0.211 0-23.564-19.102-42.667-42.667-42.667s-42.667 19.103-42.667 42.667c0 34.932 21.572 64.112 47.094 82.636 26.579 19.291 62.218 31.142 102.393 31.142 32.201 0 72.623-10.863 103.735-37.389 33.604-28.651 53.316-73.316 42.436-130.391-10.466-54.884-45.359-81.402-67.682-98.362-2.146-1.634-4.177-3.174-6.059-4.646-11.332-8.862-17.724-14.929-22.046-21.956-3.819-6.204-7.718-16-7.718-34.368 0-23.565-19.102-42.667-42.667-42.667s-42.667 19.102-42.667 42.667c0 31.834 7.142 57.587 20.378 79.095 12.736 20.689 29.419 34.492 42.155 44.45 1.758 1.374 3.447 2.688 5.073 3.955 23.083 17.963 33.225 25.856 37.406 47.811 5.069 26.585-3.426 40.482-13.973 49.478-13.043 11.121-32.725 16.99-48.371 16.99-23.612 0-41.387-6.972-52.271-14.871-10.795-7.835-11.785-13.798-11.874-13.785zM554.667 138.667c0-23.565-19.102-42.667-42.667-42.667s-42.667 19.102-42.667 42.667c0 23.565 19.102 42.667 42.667 42.667s42.667-19.102 42.667-42.667zM512-32c-212.077 0-384 171.921-384 384 0 212.077 171.923 384 384 384 212.079 0 384-171.923 384-384 0-212.079-171.921-384-384-384zM512-117.333c259.204 0 469.333 210.129 469.333 469.333 0 259.206-210.129 469.333-469.333 469.333-259.206 0-469.333-210.128-469.333-469.333 0-259.204 210.128-469.333 469.333-469.333z" />
<glyph unicode="&#xe933;" glyph-name="reload-24" d="M892.587 403.994c10.59-94.967-16.265-185.638-68.715-257.89-13.845-19.072-40.525-23.309-59.593-9.463-19.072 13.841-23.309 40.521-9.463 59.593 40.619 55.957 61.077 125.559 52.962 198.306-12.331 110.592-88.017 200.254-189.111 237.542l0.431-20.335c0.064-33.303-34.94-55.032-64.755-40.198l-164.175 81.678c-33.111 16.473-33.131 63.703-0.034 80.204l163.855 81.691c29.751 14.832 64.725-6.763 64.789-40.006l-0.111-53.467c144.094-40.398 256.55-161.889 273.92-317.654zM126.375 300.006c-10.591 94.967 16.267 185.639 68.717 257.892 13.843 19.069 40.524 23.307 59.593 9.463s23.306-40.524 9.463-59.593c-40.622-55.959-61.078-125.561-52.966-198.303 12.573-112.747 90.985-203.738 195.034-239.659l0.109 26.061c0.5 33.301 35.867 54.434 65.426 39.095l162.765-84.454c32.828-17.028 32.047-64.252-1.327-80.192l-165.214-78.899c-29.999-14.323-64.601 7.863-64.102 41.101l1.461 48.457c-146.504 38.955-261.388 161.455-278.961 319.031z" />
<glyph unicode="&#xe934;" glyph-name="ruble" d="M544 595.81c88.333 0 160-40.279 160-131.17 0-90.859-71.667-133.973-160-133.973h-81.779v-54.857h135.113c19.665 0 35.554-16.341 35.554-36.574 0-20.228-15.889-36.57-35.554-36.57h-135.113v-64c0-20.228-15.889-36.57-35.554-36.57-19.633 0-35.555 16.341-35.555 36.57v64h-35.556c-19.633 0-35.555 16.341-35.555 36.57 0 20.233 15.922 36.574 35.555 36.574h35.556v54.857h-35.556c-19.633 0-35.555 16.341-35.555 36.57 0 20.233 15.922 36.574 35.555 36.574h35.556v155.429c0 20.194 15.922 36.571 35.555 36.571h117.333zM632.887 464.64c0 48.639-39.778 58.028-88.887 58.028h-81.779v-118.857h81.779c49.109 0 88.887 12.19 88.887 60.83zM512-32c-212.077 0-384 171.921-384 384 0 212.077 171.923 384 384 384 212.079 0 384-171.923 384-384 0-212.079-171.921-384-384-384zM512-117.333c259.204 0 469.333 210.129 469.333 469.333 0 259.206-210.129 469.333-469.333 469.333-259.206 0-469.333-210.128-469.333-469.333 0-259.204 210.128-469.333 469.333-469.333z" />
<glyph unicode="&#xe935;" glyph-name="save-24" d="M901.2 535.2l-206 206c-24 24-56.6 37.5-90.5 37.5h-391.4c-70.7 0-128-57.3-128-128v0-597.3c0-70.7 57.3-128 128-128h597.3c70.7 0 128 57.3 128 128v391.3c0.1 33.9-13.4 66.5-37.4 90.5zM640 10.7h-256v149.3c0 11.8 9.6 21.3 21.3 21.3h213.3c11.8 0 21.3-9.6 21.3-21.3v-149.3zM853.3 53.3c0-23.6-19.1-42.7-42.7-42.7h-85.3v149.4c0 58.9-47.8 106.7-106.7 106.7h-213.3c-58.9 0-106.7-47.8-106.7-106.7v-149.3h-85.3c-23.6 0-42.7 19.1-42.7 42.7v597.3c0 23.6 19.1 42.7 42.7 42.7h391.3c11.3 0 22.2-4.5 30.2-12.5l206-206c8-8 12.5-18.9 12.5-30.2v-391.4z" />
<glyph unicode="&#xe936;" glyph-name="score-24" d="M202.957 676.348c0.287 22.935 17.856 41.946 40.697 44.038l158.518 14.512c22.391 2.050 42.206-14.44 44.254-36.831 2.052-22.391-14.438-42.205-36.83-44.255l-125.632-11.502-0.651-52.055c14.149 7.94 30.515 13.906 48.909 15.59 43.451 3.978 80.353-11.795 107.382-40.575 25.822-27.493 41.156-65.043 48.798-104.596 8.478-43.902 1.314-90.793-17.843-128.437-18.995-37.329-53.49-71.654-102.448-76.139-41.542-3.802-77.494 9.69-103.268 27.985-12.867 9.135-23.86 19.917-32.153 31.33-7.779 10.714-15.392 25.050-16.872 41.216-2.050 22.391 14.44 42.206 36.831 44.254 21.626 1.98 40.847-13.333 43.983-34.556 0.284-0.559 0.865-1.583 1.937-3.059 2.671-3.678 7.145-8.346 13.408-12.787 12.484-8.866 29.438-15.061 48.711-13.295 11.856 1.084 26.119 10.001 37.304 31.983 11.025 21.662 15.468 50.142 10.461 76.063-5.847 30.269-16.35 51.677-28.201 64.296-10.641 11.331-23.242 16.822-40.606 15.232-8.497-0.778-18.113-5.135-28.486-14.036-10.331-8.865-19.287-20.475-25.806-31.216-13.096-21.578-36.437-23.749-50.207-20.26-13.877 3.516-34.685 17.339-34.35 44.22l2.161 172.88zM516.527 615.433c-7.177 78.369 50.539 147.717 128.909 154.892s147.716-50.54 154.889-128.909l14.848-162.172c7.177-78.369-50.539-147.715-128.909-154.892s-147.716 50.539-154.893 128.909l-14.844 162.172zM652.86 689.239c-33.587-3.075-58.321-32.795-55.249-66.382l14.848-162.172c3.076-33.587 32.794-58.321 66.381-55.245 33.587 3.072 58.321 32.793 55.249 66.38l-14.848 162.172c-3.076 33.587-32.794 58.322-66.381 55.247zM538.044 117.594c111.774 12.42 224.171 19.639 336.631 21.073 23.561 0 42.667 19.102 42.667 42.667s-19.11 42.667-42.675 42.667c-115.465-0.162-231.386-8.853-346.048-21.594-185.936-20.659-349.484-79.215-370.632-86.942-22.421-8.243-35.955-32.614-27.267-55.782 8.273-22.059 32.87-33.233 54.932-24.969l0.042 0.017 0.288 0.107c113.169 40.905 232.547 69.478 352.062 82.756zM895.727 5.756c2.709 23.411-14.084 44.582-37.491 47.296-94.293 10.355-191.006 6.993-285.312 0.171-98.419-7.125-202.694-25.643-292.848-68.156-21.209-10.27-30.077-35.789-19.807-56.994 10.266-21.205 35.778-30.071 56.983-19.814 80.527 37.662 174.145 53.504 261.833 59.853 88.943 6.438 180.309 9.813 269.235 0.183 23.151-2.598 44.715 14.212 47.407 37.461z" />
<glyph unicode="&#xe937;" glyph-name="shrink-24" d="M362.667 757.333c23.564 0 42.667-19.103 42.667-42.667v-202.667c0-29.455-23.878-53.333-53.333-53.333h-202.667c-23.564 0-42.667 19.102-42.667 42.667s19.103 42.667 42.667 42.667h110.327l-161.83 161.83c-16.662 16.663-16.662 43.677 0 60.34s43.677 16.662 60.34 0l161.83-161.83v110.327c0 23.564 19.103 42.667 42.667 42.667zM661.333-53.333c-23.565 0-42.667 19.102-42.667 42.667v202.667c0 29.457 23.876 53.333 53.333 53.333h202.667c23.565 0 42.667-19.102 42.667-42.667s-19.102-42.667-42.667-42.667h-110.327l161.83-161.83c16.661-16.661 16.661-43.678 0-60.339s-43.678-16.661-60.339 0l-161.83 161.83v-110.327c0-23.565-19.102-42.667-42.667-42.667zM917.333 501.333c0-23.564-19.102-42.667-42.667-42.667h-202.667c-29.457 0-53.333 23.878-53.333 53.333v202.667c0 23.564 19.102 42.667 42.667 42.667s42.667-19.103 42.667-42.667v-110.327l161.83 161.83c16.661 16.662 43.678 16.662 60.339 0s16.661-43.677 0-60.34l-161.83-161.83h110.327c23.565 0 42.667-19.103 42.667-42.667zM106.667 202.667c0 23.565 19.103 42.667 42.667 42.667h202.667c29.455 0 53.333-23.876 53.333-53.333v-202.667c0-23.565-19.102-42.667-42.667-42.667s-42.667 19.102-42.667 42.667v110.327l-161.83-161.83c-16.663-16.661-43.677-16.661-60.34 0s-16.662 43.678 0 60.339l161.83 161.83h-110.327c-23.564 0-42.667 19.102-42.667 42.667z" />
<glyph unicode="&#xe938;" glyph-name="sort-down-24" d="M512 736c0 23.564 17.51 42.667 39.113 42.667h348.442c21.602 0 39.113-19.103 39.113-42.667s-17.51-42.667-39.113-42.667h-348.442c-21.602 0-39.113 19.103-39.113 42.667zM512 522.667c0 23.564 17.51 42.667 39.113 42.667h266.667c21.598 0 39.108-19.103 39.108-42.667s-17.51-42.667-39.108-42.667h-266.667c-21.602 0-39.113 19.103-39.113 42.667zM512 309.333c0 23.565 17.51 42.667 39.113 42.667h192c21.598 0 39.108-19.102 39.108-42.667s-17.51-42.667-39.108-42.667h-192c-21.602 0-39.113 19.102-39.113 42.667zM341.333 778.667c23.564 0 42.667-21.113 42.667-47.158v-662.44l97.83 99.55c16.661 16.951 43.678 16.951 60.339 0 16.661-16.956 16.661-44.446 0-61.402l-163.124-165.99c-20.828-21.193-54.597-21.193-75.424 0l-163.124 165.99c-16.662 16.956-16.662 44.446 0 61.402 16.663 16.951 43.677 16.951 60.34 0l97.83-99.55v662.44c0 26.045 19.102 47.158 42.667 47.158z" />
<glyph unicode="&#xe939;" glyph-name="sort-up-24" d="M512-32c0-23.565-17.51-42.667-39.113-42.667h-348.443c-21.601 0-39.111 19.102-39.111 42.667s17.51 42.667 39.111 42.667h348.443c21.602 0 39.113-19.102 39.113-42.667zM512 181.333c0-23.565-17.51-42.667-39.113-42.667h-266.665c-21.6 0-39.111 19.102-39.111 42.667s17.51 42.667 39.111 42.667h266.665c21.602 0 39.113-19.102 39.113-42.667zM512 394.667c0-23.565-17.51-42.667-39.113-42.667h-191.999c-21.6 0-39.111 19.102-39.111 42.667s17.51 42.667 39.111 42.667h191.999c21.602 0 39.113-19.102 39.113-42.667zM682.667-74.667c-23.565 0-42.667 21.111-42.667 47.159v662.438l-97.83-99.548c-16.661-16.955-43.678-16.955-60.339 0s-16.661 44.444 0 61.399l163.123 165.989c20.83 21.194 54.596 21.194 75.426 0l163.123-165.989c16.661-16.955 16.661-44.445 0-61.399s-43.678-16.955-60.339 0l-97.83 99.548v-662.438c0-26.048-19.102-47.159-42.667-47.159z" />
<glyph unicode="&#xe93a;" glyph-name="spinner-24" d="M981.333 352c0-92.826-27.524-183.565-79.095-260.749-51.571-77.18-124.873-137.335-210.633-172.86-85.76-35.52-180.126-44.817-271.168-26.705-91.042 18.108-174.669 62.805-240.306 128.444s-110.337 149.265-128.446 240.307c-18.109 91.042-8.815 185.409 26.708 271.169s95.678 159.059 172.86 210.63c77.181 51.571 167.922 79.097 260.748 79.097v-93.867c-74.261 0-146.853-22.021-208.598-63.278s-109.87-99.897-138.288-168.504c-28.418-68.608-35.854-144.103-21.366-216.935s50.247-139.733 102.757-192.243c52.51-52.51 119.412-88.273 192.245-102.758 72.832-14.49 148.326-7.053 216.934 21.367 68.608 28.416 127.249 76.54 168.503 138.287 41.259 61.743 63.279 134.336 63.279 208.597h93.867z" />
<glyph unicode="&#xe93b;" glyph-name="split-24" d="M780.497 510.17c16.661 16.662 43.674 16.662 60.339 0l120.457-120.457c20.826-20.83 20.826-54.596 0-75.426l-120.457-120.457c-16.666-16.661-43.678-16.661-60.339 0-16.666 16.661-16.666 43.678 0 60.339l55.159 55.164h-152.99c-23.565 0-42.667 19.102-42.667 42.667s19.102 42.667 42.667 42.667h152.99l-55.159 55.164c-16.666 16.663-16.666 43.677 0 60.34zM239.085 193.83c-16.662-16.661-43.677-16.661-60.34 0l-120.457 120.457c-20.828 20.83-20.828 54.596 0 75.426l120.457 120.457c16.663 16.662 43.677 16.662 60.34 0s16.663-43.677 0-60.34l-55.163-55.164h152.994c23.564 0 42.667-19.102 42.667-42.667s-19.103-42.667-42.667-42.667h-152.994l55.163-55.164c16.663-16.661 16.663-43.678 0-60.339zM512 676.267c23.565 0 42.667-21.013 42.667-46.933v-576c0-25.92-19.106-46.933-42.667-46.933-23.565 0-42.667 21.013-42.667 46.933v576c0 25.92 19.102 46.933 42.667 46.933z" />
<glyph unicode="&#xe93c;" glyph-name="tick-24" d="M883.499 595.503c16.661-16.663 16.661-43.677 0-60.34l-453.043-453.043c-26.362-26.364-69.586-24.7-93.848 3.605l-241.002 281.173c-15.335 17.89-13.263 44.826 4.629 60.164 17.891 15.334 44.826 13.261 60.162-4.629l226.009-263.684 436.754 436.753c16.661 16.662 43.678 16.662 60.339 0z" />
<glyph unicode="&#xe93d;" glyph-name="trash-can-24" d="M462.221 736h80.593c11.785 0 21.333-9.551 21.333-21.333v-21.333h-123.26v21.333c0 11.782 9.553 21.333 21.333 21.333zM649.481 693.333h203.853c23.565 0 42.667-19.102 42.667-42.667 0-22.7-17.728-41.26-40.094-42.59l-32.644-624.311c-2.965-56.67-49.775-101.099-106.522-101.099h-409.481c-56.746 0-103.558 44.429-106.521 101.099l-32.644 624.311c-22.367 1.33-40.095 19.89-40.095 42.59 0 23.564 19.103 42.667 42.667 42.667h184.889v21.333c0 58.91 47.756 106.667 106.665 106.667h80.593c58.91 0 106.667-47.756 106.667-106.667v-21.333zM770.453 608h-516.905l32.407-619.78c0.593-11.332 9.955-20.22 21.304-20.22h409.481c11.349 0 20.71 8.887 21.303 20.22l32.41 619.78zM426.667 501.333c23.565 0 42.667-19.103 42.667-42.667v-341.333c0-23.565-19.102-42.667-42.667-42.667s-42.667 19.102-42.667 42.667v341.333c0 23.564 19.103 42.667 42.667 42.667zM597.333 501.333c23.565 0 42.667-19.103 42.667-42.667v-341.333c0-23.565-19.102-42.667-42.667-42.667s-42.667 19.102-42.667 42.667v341.333c0 23.564 19.102 42.667 42.667 42.667z" />
<glyph unicode="&#xe93e;" glyph-name="user-group-24" d="M255.998 608c11.782 0 21.333-9.551 21.333-21.333s-9.551-21.333-21.333-21.333c-11.782 0-21.333 9.551-21.333 21.333s9.551 21.333 21.333 21.333zM149.332 586.667c0-30.727 12.993-58.42 33.784-77.884-53.378-20.96-95.865-63.365-119.307-111.33-16.937-34.65-8.887-70.067 12.035-94.545 19.74-23.095 50.123-36.241 81.488-36.241h94.441c-18.316-22.118-33.923-46.106-46.356-71.138-24.074-48.478-13.168-97.463 16.297-132.015 28.258-33.139 72.786-52.847 119.617-52.847h341.335c46.831 0 91.358 19.708 119.616 52.847 29.466 34.551 40.371 83.537 16.294 132.015-12.429 25.033-28.036 49.020-46.353 71.138h94.443c31.364 0 61.747 13.146 81.485 36.241 20.924 24.478 28.975 59.895 12.036 94.545-23.441 47.965-65.929 90.37-119.309 111.33 20.791 19.464 33.788 47.157 33.788 77.884 0 58.91-47.757 106.667-106.667 106.667s-106.667-47.756-106.667-106.667c0-30.727 12.992-58.42 33.783-77.884-11.938-4.688-23.334-10.449-34.091-17.105 0.201 3.193 0.307 6.412 0.307 9.656 0 82.475-66.859 149.333-149.333 149.333s-149.335-66.859-149.335-149.333c0-3.244 0.104-6.464 0.307-9.656-10.758 6.656-22.152 12.417-34.091 17.105 20.791 19.464 33.784 47.157 33.784 77.884 0 58.91-47.756 106.667-106.667 106.667s-106.667-47.756-106.667-106.667zM370.833 361.374c-6.011-2.957-11.924-6.084-17.734-9.374h-195.768c-8.399 0-14.342 3.682-16.622 6.353-0.286 0.333-0.474 0.602-0.595 0.794 0.072 0.201 0.184 0.478 0.359 0.836 21.761 44.523 66.952 77.35 115.524 77.35 48.065 0 92.819-32.145 114.835-75.959zM382.698 270.212c15.897 4.092 30.686 11.631 42.91 22.135 27.183 10.897 56.316 16.986 86.392 16.986 30.071 0 59.204-6.089 86.387-16.986 12.224-10.505 27.017-18.044 42.91-22.135 42.906-27.409 78.276-67.183 100.855-112.644 7.369-14.839 4.77-27.46-4.8-38.686-10.782-12.642-30.827-22.882-54.686-22.882h-341.335c-23.862 0-43.906 10.24-54.687 22.882-9.573 11.226-12.171 23.846-4.801 38.686 22.577 45.461 57.948 85.235 100.854 112.644zM670.899 352c-5.811 3.29-11.725 6.417-17.737 9.374 22.016 43.814 66.769 75.959 114.837 75.959 48.572 0 93.76-32.828 115.524-77.35 0.175-0.358 0.286-0.636 0.358-0.836-0.119-0.192-0.311-0.461-0.597-0.794-2.278-2.671-8.222-6.353-16.619-6.353h-195.767zM883.998 358.716l-0.009 0.077c0-0.051 0.009-0.077 0.009-0.077zM139.998 358.716l0.011 0.077c-0.011-0.055-0.013-0.077-0.011-0.077zM768 608c11.78 0 21.333-9.551 21.333-21.333s-9.553-21.333-21.333-21.333c-11.785 0-21.333 9.551-21.333 21.333s9.549 21.333 21.333 21.333zM512 565.333c35.345 0 64-28.654 64-64s-28.655-64-64-64c-35.349 0-64 28.654-64 64s28.651 64 64 64z" />
<glyph unicode="&#xe93f;" glyph-name="warning-24" d="M512 565.333c23.565 0 42.667-19.103 42.667-42.667v-170.667c0-23.565-19.102-42.667-42.667-42.667s-42.667 19.102-42.667 42.667v170.667c0 23.564 19.102 42.667 42.667 42.667zM554.667 181.333c0-23.565-19.102-42.667-42.667-42.667s-42.667 19.102-42.667 42.667c0 23.565 19.102 42.667 42.667 42.667s42.667-19.102 42.667-42.667zM881.502 96h-739.010l369.504 640 369.506-640zM585.899 778.667c-32.845 56.889-114.957 56.889-147.802 0l-369.506-640c-32.845-56.887 8.211-128 73.901-128h739.010c65.69 0 106.743 71.113 73.899 128l-369.502 640z" />
<glyph unicode="&#xe940;" glyph-name="arrow-angle-down-16" d="M950.63 598.627c12.493-12.497 12.493-32.758 0-45.254l-404.689-404.688c-18.745-18.746-49.137-18.746-67.882 0l-404.686 404.688c-12.497 12.497-12.497 32.758 0 45.254s32.758 12.497 45.254 0l393.373-393.373 393.37 393.373c12.499 12.497 32.762 12.497 45.261 0z" />
<glyph unicode="&#xe941;" glyph-name="arrow-angle-left-16" d="M758.406-99.315c-12.499-12.499-32.755-12.499-45.254 0l-404.687 404.687c-18.746 18.745-18.746 49.137 0 67.882l404.687 404.686c12.499 12.497 32.755 12.497 45.254 0s12.499-32.758 0-45.255l-393.373-393.372 393.373-393.373c12.499-12.499 12.499-32.755 0-45.254z" />
<glyph unicode="&#xe942;" glyph-name="arrow-angle-right-16" d="M265.373 790.627c12.497 12.497 32.758 12.497 45.254 0l404.688-404.686c18.746-18.745 18.746-49.137 0-67.882l-404.688-404.689c-12.497-12.493-32.758-12.493-45.254 0-12.497 12.499-12.497 32.762 0 45.261l393.373 393.37-393.373 393.373c-12.497 12.497-12.497 32.758 0 45.254z" />
<glyph unicode="&#xe943;" glyph-name="arrow-angle-up-16" d="M73.373 105.6c-12.497 12.499-12.497 32.762 0 45.254l404.686 404.688c18.745 18.746 49.137 18.746 67.882 0l404.689-404.688c12.493-12.493 12.493-32.755 0-45.254-12.499-12.493-32.762-12.493-45.261 0l-393.37 393.374-393.373-393.374c-12.497-12.493-32.758-12.493-45.254 0z" />
<glyph unicode="&#xe944;" glyph-name="arrow-down-16" d="M137.373 240.23c12.497 12.497 32.758 12.497 45.254 0l297.373-297.37v889.139c0 17.673 14.327 32 32 32s32-14.327 32-32v-889.139l297.37 297.37c12.499 12.497 32.762 12.497 45.261 0 12.493-12.497 12.493-32.755 0-45.254l-340.689-340.685c-18.745-18.746-49.137-18.746-67.882 0l-340.686 340.685c-12.497 12.499-12.497 32.758 0 45.254z" />
<glyph unicode="&#xe945;" glyph-name="arrow-left-16" d="M400.109 726.744c12.497-12.497 12.497-32.758 0-45.254l-297.373-297.373h889.142c17.677 0 32-14.327 32-32s-14.323-32-32-32h-889.142l297.373-297.372c12.497-12.499 12.497-32.762 0-45.254-12.497-12.499-32.758-12.499-45.255 0l-340.686 340.685c-18.745 18.745-18.745 49.137 0 67.882l340.686 340.686c12.497 12.497 32.758 12.497 45.255 0z" />
<glyph unicode="&#xe946;" glyph-name="arrow-right-16" d="M623.879-22.509c-12.497 12.493-12.497 32.755 0 45.254l297.375 297.372h-889.145c-17.673 0-32 14.327-32 32s14.327 32 32 32h889.145l-297.375 297.373c-12.497 12.497-12.497 32.758 0 45.254s32.761 12.497 45.254 0l340.685-340.686c18.746-18.745 18.746-49.137 0-67.882l-340.685-340.685c-12.493-12.499-32.757-12.499-45.254 0z" />
<glyph unicode="&#xe947;" glyph-name="arrow-up-16" d="M886.63 464c-12.499-12.497-32.762-12.497-45.261 0l-297.37 297.373v-889.142c0-17.67-14.327-32-32-32s-32 14.33-32 32v889.142l-297.373-297.373c-12.497-12.497-32.758-12.497-45.254 0s-12.497 32.758 0 45.255l340.686 340.686c18.745 18.745 49.137 18.745 67.882 0l340.689-340.686c12.493-12.497 12.493-32.758 0-45.255z" />
<glyph unicode="&#xe948;" glyph-name="back-16" d="M512.004 832c265.097 0 480.003-214.903 480.003-480 0-265.094-214.906-480-480.003-480-174.643 0-327.466 93.286-411.409 232.602-9.121 15.136-4.244 34.803 10.893 43.923s34.803 4.243 43.924-10.893c72.844-120.896 205.304-201.632 356.591-201.632 229.75 0 416.003 186.246 416.003 416 0 229.75-186.253 416-416.003 416-80.361 0-155.377-22.766-218.982-62.227l58.989-65.772c29.782-33.208 12.497-86.705-30.874-95.549l-206.066-42.019c-42.122-8.589-78.070 31.492-65.713 73.267l60.456 204.374c12.724 43.013 66.803 55.489 96.586 22.281l43.313-48.295c75.388 49.274 165.507 77.94 262.29 77.94z" />
<glyph unicode="&#xe949;" glyph-name="calendar-16" d="M192 735.999c-70.692 0-128-57.308-128-128v-575.999c0-70.694 57.308-128 128-128h640c70.694 0 128 57.306 128 128v575.999c0 70.692-57.306 128-128 128h-128v32.001c0 17.673-14.33 32-32 32s-32-14.327-32-32v-32.001h-256v32.001c0 17.673-14.327 32-32 32s-32-14.327-32-32v-32.001h-128zM192 671.999h128v-64c0-17.673 14.327-32 32-32s32 14.327 32 32v64h256v-64c0-17.673 14.33-32 32-32s32 14.327 32 32v64.001l128-0.001c35.347 0 64-28.654 64-64v-128h-768v128c0 35.346 28.653 64 64 64zM128 415.999h768v-383.999c0-35.347-28.653-64-64-64h-640c-35.346 0-64 28.653-64 64v383.999z" />
<glyph unicode="&#xe94a;" glyph-name="caret-down-16" d="M336.923 479.999l350.156 0.001c43.494 0 65.28-49.366 34.522-78.237l-175.073-164.339c-19.067-17.898-49.981-17.898-69.049-0.001l-175.080 164.339c-30.758 28.872-8.975 78.237 34.524 78.237z" />
<glyph unicode="&#xe94b;" glyph-name="columns-16" d="M128.015 768c0 17.673 14.327 32 32 32h256c17.674 0 32-14.327 32-32s-14.326-32-32-32h-256c-17.673 0-32 14.327-32 32zM128.015-64c0 17.67 14.327 32 32 32h256c17.674 0 32-14.33 32-32s-14.326-32-32-32h-256c-17.673 0-32 14.33-32 32zM576.010 768c0 17.673 14.327 32 32 32h256.003c17.67 0 32-14.327 32-32s-14.33-32-32-32h-256.003c-17.673 0-32 14.327-32 32zM576.010-64c0 17.67 14.327 32 32 32h256.003c17.67 0 32-14.33 32-32s-14.33-32-32-32h-256.003c-17.673 0-32 14.33-32 32zM128.015 352c0 17.673 14.327 32 32 32h256c17.674 0 32-14.327 32-32s-14.326-32-32-32h-256c-17.673 0-32 14.327-32 32zM576.005 352c0 17.674 14.327 32 32 32h256.001c17.67 0 32-14.326 32-32s-14.33-32-32-32h-256.001c-17.673 0-32 14.327-32 32z" />
<glyph unicode="&#xe94c;" glyph-name="copy-16" d="M384 544c0 70.692 57.308 128 128 128h320c70.694 0 128-57.308 128-128v-512c0-70.694-57.306-128-128-128h-320c-70.692 0-128 57.306-128 128v512zM512 608c-35.346 0-64-28.654-64-64v-512c0-35.347 28.654-64 64-64h320c35.347 0 64 28.653 64 64v512c0 35.346-28.653 64-64 64h-320zM64 672c0 70.692 57.308 128 128 128h352c17.673 0 32-14.327 32-32s-14.327-32-32-32h-352c-35.346 0-64-28.654-64-64v-512c0-35.347 28.654-64 64-64h96c17.673 0 32-14.33 32-32s-14.327-32-32-32h-96c-70.692 0-128 57.306-128 128v512z" />
<glyph unicode="&#xe94d;" glyph-name="cross-16" d="M159.997 704.003c12.497 12.497 32.758 12.497 45.255 0l306.74-306.744 306.753 306.741c12.499 12.497 32.755 12.497 45.254 0s12.499-32.758 0-45.255l-306.753-306.74 306.753-306.75c12.499-12.499 12.499-32.755 0-45.254s-32.755-12.499-45.254 0l-306.753 306.749-306.738-306.749c-12.497-12.499-32.758-12.499-45.255 0s-12.497 32.755 0 45.254l306.738 306.75-306.74 306.743c-12.497 12.497-12.497 32.758 0 45.255z" />
<glyph unicode="&#xe94e;" glyph-name="download-16" d="M512 864c17.673 0 32-14.327 32-32v-703.546l233.37 233.373c12.499 12.497 32.762 12.497 45.261 0 12.493-12.497 12.493-32.758 0-45.254l-276.689-276.688c-18.745-18.746-49.137-18.746-67.882 0l-276.686 276.688c-12.497 12.497-12.497 32.758 0 45.254s32.758 12.497 45.254 0l233.373-233.373v703.546c0 17.673 14.327 32 32 32zM160 0c17.673 0 32-14.33 32-32 0-35.347 28.654-64 64-64h512c35.347 0 64 28.653 64 64 0 17.67 14.33 32 32 32s32-14.33 32-32c0-70.694-57.306-128-128-128h-512c-70.692 0-128 57.306-128 128 0 17.67 14.327 32 32 32z" />
<glyph unicode="&#xe94f;" glyph-name="exit-16" d="M777.376 566.627c12.499 12.497 32.755 12.497 45.254 0l180.685-180.686c18.746-18.745 18.746-49.137 0-67.882l-180.685-180.689c-12.499-12.493-32.755-12.493-45.254 0-12.499 12.499-12.499 32.762 0 45.261l137.37 137.37h-498.743c-17.673 0-32 14.327-32 32s14.327 32 32 32h498.743l-137.37 137.373c-12.499 12.497-12.499 32.758 0 45.254zM0.003 608c0 70.692 57.308 128 128 128h320c70.692 0 128-57.308 128-128 0-17.673-14.327-32-32-32s-32 14.327-32 32c0 35.346-28.653 64-64 64h-320c-35.346 0-64-28.654-64-64l-0.003-512c0-35.347 28.654-64 64-64h320c33.681 0 46.639 7.757 52.424 14.227 6.49 7.258 11.579 21.158 11.579 49.773 0 17.67 14.327 32 32 32s32-14.33 32-32c0-32.998-5.212-67.098-27.873-92.435-23.366-26.131-58.41-35.565-100.129-35.565h-320c-70.692 0-128 57.306-128 128l0.003 512z" />
<glyph unicode="&#xe950;" glyph-name="filter-16" d="M64 768c0 17.673 12.28 32 27.428 32h841.141c15.149 0 27.43-14.327 27.43-32s-12.282-32-27.43-32h-841.141c-15.148 0-27.428 14.327-27.428 32zM173.715 384c0 17.673 12.28 32 27.428 32h621.711c15.149 0 27.43-14.327 27.43-32s-12.282-32-27.43-32h-621.711c-15.149 0-27.428 14.327-27.428 32zM283.428 0c0 17.67 12.28 32 27.428 32h402.289c15.149 0 27.424-14.33 27.424-32s-12.275-32-27.424-32h-402.289c-15.148 0-27.428 14.33-27.428 32z" />
<glyph unicode="&#xe951;" glyph-name="menu-dots-16" d="M576 672c0-35.346-28.654-64-64-64s-64 28.654-64 64c0 35.346 28.654 64 64 64s64-28.654 64-64zM576 352c0-35.346-28.654-64-64-64s-64 28.654-64 64c0 35.346 28.654 64 64 64s64-28.654 64-64zM576 32c0-35.347-28.654-64-64-64s-64 28.653-64 64c0 35.347 28.654 64 64 64s64-28.653 64-64z" />
<glyph unicode="&#xe952;" glyph-name="pensil-16" d="M755.162 776.278c37.491 37.49 98.278 37.49 135.77 0l45.254-45.254c37.491-37.491 37.491-98.275 0-135.764l-609.444-609.441-179.27-44.819c-28.124-7.034-53.597 18.445-46.567 46.566l44.818 179.27 609.44 609.443zM801.043 550.628l-90.509 90.51-507.023-507.026-30.17-120.678 120.68 30.17 507.022 507.025z" />
<glyph unicode="&#xe953;" glyph-name="pensil-line-16" d="M740.979 762.281c37.491 37.49 98.278 37.49 135.77 0l45.254-45.255c37.491-37.491 37.491-98.275 0-135.764l-598.98-598.977-206.884-72.442c-28.124-7.027-53.598 18.445-46.567 46.573l72.432 206.886 598.975 598.979zM786.861 536.631l-90.509 90.509-496.558-496.555-57.784-148.301 148.294 57.786 496.557 496.561zM416-64c0 17.67 14.327 32 32 32h448c17.67 0 32-14.33 32-32s-14.33-32-32-32h-448c-17.673 0-32 14.33-32 32z" />
<glyph unicode="&#xe954;" glyph-name="plus-16" d="M512.002 800c17.674 0 32-14.327 32-32v-383.999h383.998c17.677 0 32-14.327 32-32s-14.323-32-32-32h-383.998v-384.001c0-17.67-14.326-32-32-32s-32 14.33-32 32v384.001h-384.002c-17.673 0-32 14.327-32 32s14.327 32 32 32h384.002v383.999c0 17.673 14.327 32 32 32z" />
<glyph unicode="&#xe955;" glyph-name="ruble-16" d="M432 608h144.149c26.73-0.161 54.399-7.497 78.161-19.379 19.795-9.898 40.563-25.247 56.314-48.871 15.885-23.824 25.376-54.151 25.376-91.75s-9.491-67.926-25.376-91.75c-15.75-23.624-36.518-38.973-56.314-48.871-18.065-9.033-46.763-19.344-78.242-19.379h-128.068v-64h192c17.67 0 32-14.33 32-32s-14.33-32-32-32h-192v-64c0-17.67-14.327-32-32-32s-32 14.33-32 32v64h-64c-17.673 0-32 14.33-32 32s14.327 32 32 32h64v64h-64c-17.673 0-32 14.327-32 32s14.327 32 32 32h64v208c0 26.509 21.491 48 48 48zM448 352h127.861c16.906 0.447 34.764 5.089 49.828 12.621 12.204 6.102 23.437 14.753 31.687 27.129 8.115 12.176 14.624 29.849 14.624 56.25s-6.509 44.074-14.624 56.25c-8.25 12.376-19.483 21.027-31.687 27.129-15.192 7.596-32.774 12.171-49.828 12.621h-127.86v-192zM512-96c-247.423 0-448 200.576-448 448s200.577 448 448 448c247.424 0 448-200.577 448-448s-200.576-448-448-448zM512-160c282.771 0 512 229.229 512 512s-229.229 512-512 512c-282.77 0-512-229.23-512-512s229.23-512 512-512z" />
<glyph unicode="&#xe956;" glyph-name="sign-16" d="M859.482 612.964l-81.517 25.203-182.46-554.232 13.453-100.909 68.059 75.706 182.464 554.232zM737.606 724.281c17.523 56.68 77.677 88.421 134.355 70.897l-1.453 0.449c56.678-17.524 88.422-77.678 70.899-134.358l-203.802-623.253c-3.059-9.894-8.755-18.771-16.467-25.683l-93.596-98.586c-25.061-22.451-65.010-10.099-73.027 22.579l-21.622 134.208c-2.467 10.061-2.155 20.595 0.904 30.49l203.807 623.257zM64-64c0 17.67 14.327 32 32 32h352c17.673 0 32-14.33 32-32s-14.327-32-32-32h-352c-17.673 0-32 14.33-32 32z" />
<glyph unicode="&#xe957;" glyph-name="sort-down-16" d="M404.468 765.257c0 17.673 14.328 32 32.001 32h440.644c17.677 0 32-14.327 32-32s-14.323-32-32-32h-440.644c-17.673 0-32.001 14.326-32.001 32zM404.468 509.257c0 17.673 14.328 32 32.001 32h376.644c17.67 0 32-14.327 32-32s-14.33-32-32-32h-376.644c-17.673 0-32.001 14.326-32.001 32zM404.468 253.257c0 17.673 14.328 32 32.001 32h248.638c17.677 0 32-14.327 32-32s-14.323-32.003-32-32.003h-248.638c-17.673 0-32.001 14.329-32.001 32.003zM180.968 800c17.674 0 32-14.327 32-32l3.741-652.538h47.044c32.336 0 52.308-35.277 35.672-63.008l-79.044-131.738c-16.158-26.931-55.185-26.931-71.343 0l-79.044 131.738c-16.637 27.731 3.335 63.008 35.672 63.008h47.044l-3.741 652.538c0 17.673 14.326 32 32 32z" />
<glyph unicode="&#xe958;" glyph-name="spinner-colored-16" d="M512.456 834.070c1.162-17.653-12.207-32.906-29.86-34.068-233.707-15.383-418.531-209.86-418.531-447.478 0-247.68 200.782-448.461 448.46-448.461 237.619 0 432.096 184.826 447.475 418.532 1.165 17.653 16.416 31.022 34.067 29.86 17.658-1.162 31.027-16.415 29.862-34.067-17.587-267.163-239.814-478.388-511.405-478.388-283.060 0-512.525 229.466-512.525 512.525 0 271.591 211.228 493.82 478.388 511.405 17.653 1.162 32.906-12.207 34.068-29.86z" />
<glyph unicode="&#xe959;" glyph-name="tick-16" d="M983.13 694.625c11.827-12.497 11.827-32.758 0-45.255l-587.805-608.001-354.457 374.627c-11.824 12.497-11.824 32.758 0 45.254s30.994 12.497 42.818 0l311.638-329.372 544.989 562.747c11.827 12.497 30.995 12.497 42.816 0z" />
<glyph unicode="&#xe95a;" glyph-name="trash-can-16" d="M416 544.002c17.673 0 32-13.484 32-30.117v-481.885c0-16.634-14.327-30.118-32-30.118s-32 13.485-32 30.118v481.885c0 16.633 14.327 30.117 32 30.117zM608 544.002c17.673 0 32-13.484 32-30.117v-481.885c0-16.634-14.327-30.118-32-30.118s-32 13.485-32 30.118v481.885c0 16.633 14.327 30.117 32 30.117zM64 704c0-17.673 13.225-32 29.539-32h31.898l50.049-714.63c5.103-66.342 56.295-117.37 117.745-117.37h437.541c61.446 0 112.64 51.027 117.747 117.37l50.048 714.63h31.898c16.314 0 29.536 14.327 29.536 32s-13.222 32-29.536 32h-226.464c0 70.692-57.306 128-128 128h-128c-70.692 0-128-57.308-128-128h-226.461c-16.314 0-29.539-14.327-29.539-32zM234.357-37.312l-49.639 709.312h654.565l-49.638-709.312c-2.554-33.171-28.147-58.688-58.874-58.688h-437.541c-30.725 0-56.321 25.517-58.873 58.688zM384 736c0 35.346 28.654 64 64 64h128c35.346 0 64-28.654 64-64h-256z" />
<glyph unicode="&#xe95b;" glyph-name="warning-16" d="M507.912 534.518c17.523 0 31.727-13.206 31.727-29.498v-272.856c0-16.292-14.205-29.496-31.727-29.496s-31.727 13.203-31.727 29.496v272.856c0 16.291 14.205 29.498 31.727 29.498zM539.64 103.11c0-18.33-14.205-33.184-31.727-33.184s-31.727 14.854-31.727 33.184c0 18.33 14.205 33.184 31.727 33.184s31.727-14.854 31.727-33.184zM924.154 20.147c12.211-22.125-3.053-49.779-27.475-49.779h-769.354c-24.424 0-39.689 27.654-27.477 49.779l384.675 696.89c12.212 22.124 42.742 22.124 54.954 0l384.677-696.89zM594.431 750.222c-36.636 66.371-128.225 66.37-164.861 0l-384.675-696.891c-36.636-66.368 9.159-149.331 82.431-149.331h769.354c73.267 0 119.066 82.963 82.426 149.331l-384.673 696.891z" />
<glyph unicode="&#xe95c;" glyph-name="arrow-big-down-32" d="M512 529.213l360.656-384.701c12.086-12.893 32.336-13.546 45.229-1.459 12.896 12.090 13.549 32.339 1.459 45.232l-380.496 405.866c-14.541 15.508-39.155 15.508-53.696 0l-380.497-405.866c-12.087-12.893-11.434-33.142 1.459-45.232 12.893-12.086 33.144-11.434 45.231 1.459l360.655 384.701z" />
<glyph unicode="&#xe95d;" glyph-name="arrow-big-left-32" d="M270.788 352l384.7 360.655c12.893 12.087 13.546 32.338 1.459 45.231-12.090 12.893-32.339 13.547-45.232 1.459l-405.866-380.497c-15.508-14.541-15.508-39.155 0-53.696l405.866-380.496c12.893-12.090 33.142-11.437 45.232 1.459 12.086 12.893 11.434 33.142-1.459 45.229l-384.7 360.656z" />
<glyph unicode="&#xe95e;" glyph-name="arrow-big-right-32" d="M716.947 352l-384.701-360.656c-12.892-12.086-13.545-32.336-1.459-45.229 12.090-12.896 32.339-13.549 45.232-1.459l405.866 380.496c15.507 14.541 15.507 39.155 0 53.696l-405.866 380.497c-12.893 12.087-33.142 11.434-45.232-1.459-12.086-12.893-11.433-33.144 1.459-45.231l384.701-360.655z" />
<glyph unicode="&#xe95f;" glyph-name="arrow-big-up-32" d="M512 181.187l-360.655 384.7c-12.087 12.893-32.338 13.547-45.231 1.459s-13.547-32.338-1.459-45.231l380.497-405.866c14.541-15.507 39.155-15.507 53.696 0l380.496 405.866c12.090 12.893 11.437 33.144-1.459 45.231-12.893 12.087-33.142 11.434-45.229-1.459l-360.656-384.7z" />
<glyph unicode="&#xe960;" glyph-name="arrow-down-32" d="M694.627 422.627c12.496-12.496 12.496-32.758 0-45.254l-182.627-182.627-182.627 182.627c-12.497 12.496-12.497 32.758 0 45.254s32.758 12.496 45.254 0l137.373-137.373 137.373 137.373c12.496 12.496 32.758 12.496 45.254 0z" />
<glyph unicode="&#xe961;" glyph-name="arrow-left-32" d="M582.627 169.373c-12.496-12.496-32.758-12.496-45.254 0l-182.627 182.627 182.627 182.627c12.496 12.497 32.758 12.497 45.254 0s12.496-32.758 0-45.254l-137.373-137.373 137.373-137.373c12.496-12.496 12.496-32.758 0-45.254z" />
<glyph unicode="&#xe962;" glyph-name="arrow-right-32" d="M441.373 534.627c12.496 12.497 32.758 12.497 45.254 0l182.627-182.627-182.627-182.627c-12.496-12.496-32.758-12.496-45.254 0s-12.496 32.758 0 45.254l137.373 137.373-137.373 137.373c-12.496 12.496-12.496 32.758 0 45.254z" />
<glyph unicode="&#xe963;" glyph-name="arrow-up-32" d="M329.373 281.373c-12.497 12.496-12.497 32.758 0 45.254l182.627 182.627 182.627-182.627c12.496-12.496 12.496-32.758 0-45.254s-32.758-12.496-45.254 0l-137.373 137.373-137.373-137.373c-12.496-12.496-32.758-12.496-45.254 0z" />
<glyph unicode="&#xe964;" glyph-name="clock-32" d="M512-32c-212.077 0-384 171.923-384 384s171.923 384 384 384c212.077 0 384-171.923 384-384s-171.923-384-384-384zM512-96c247.424 0 448 200.576 448 448s-200.576 448-448 448c-247.424 0-448-200.576-448-448s200.576-448 448-448zM512 640c17.674 0 32-14.327 32-32v-236.224l142.31-71.155c15.808-7.904 22.214-27.123 14.31-42.931s-27.123-22.214-42.931-14.31l-177.69 88.845v275.776c0 17.673 14.326 32 32 32z" />
<glyph unicode="&#xe965;" glyph-name="conference-32" d="M784 480h-81.3c-7.9 62.1-52.1 121.5-106.6 149.1 12.6 17.9 19.9 40 19.9 63.4 0 58.2-44.9 107.5-104 107.5s-104-49.3-104-107.4v0c0-23.5 7.3-45.5 19.9-63.4-54.5-27.6-98.8-87-106.6-149.1h-81.3c-44.2 0-80-35.8-80-80v-160c0-44.2 35.8-80 80-80h61.2l15.2-182.6c3.5-41.5 38.1-73.4 79.7-73.4h231.7c41.6 0 76.3 31.9 79.7 73.4l15.3 182.5h61.2c44.2 0 80 35.8 80 80v160c0 44.2-35.8 80-80 80zM512 736c20.9 0 40-17.8 40-43.4 0-25.7-19.1-43.4-40-43.4s-40 17.8-40 43.4 19.1 43.4 40 43.4zM512 585.1c59.8 0 111.3-43.8 124.9-105.1h-249.8c13.6 61.3 65.1 105.1 124.9 105.1zM667.8 270.7l-24-288c-0.7-8.3-7.6-14.7-15.9-14.7h-231.7c-8.3 0-15.3 6.4-15.9 14.7l-24 288c-0.8 9.3 6.6 17.3 15.9 17.3h279.7c9.3 0 16.7-8 15.9-17.3zM784 224h-56l3.6 41.4c3.9 46.6-32.9 86.6-79.7 86.6h-279.7c-46.8 0-83.6-40-79.7-86.6l3.4-41.4h-55.9c-8.8 0-16 7.2-16 16v160c0 8.8 7.2 16 16 16h544c8.8 0 16-7.2 16-16v-160c0-8.8-7.2-16-16-16z" />
<glyph unicode="&#xe966;" glyph-name="contest-cup-32" d="M879.155 592h-41.6c3.2 32 0 112 0 144 0 19.2-12.8 32-32 32h-576c-19.2 0-32-12.8-32-32 0-32-3.2-112 0-144h-48c-51.2 0-86.4-44.8-80-96 0-3.2 3.2-9.6 3.2-12.8 9.6-41.6 22.4-99.2 28.8-131.2 6.4-16 9.6-32 16-44.8 3.2-6.4 6.4-12.8 12.8-19.2s16-12.8 32-12.8h124.8c19.2-35.2 41.6-64 64-92.8 6.4-9.6 12.8-22.4 9.6-32 0-9.6-6.4-16-9.6-19.2l-67.2-32c-25.6-12.8-41.6-38.4-44.8-67.2 0-28.8 12.8-57.6 44.8-67.2 41.6-16 134.4-25.6 227.2-25.6s185.6 12.8 227.2 25.6c32 12.8 48 38.4 44.8 67.2 0 25.6-16 54.4-44.8 67.2l-67.2 32c-6.4 3.2-9.6 9.6-9.6 19.2 0 12.8 3.2 22.4 9.6 28.8 25.6 25.6 44.8 57.6 64 92.8h124.8c16 0 25.6 9.6 32 12.8 6.4 6.4 9.6 12.8 12.8 19.2 6.4 12.8 9.6 28.8 16 48 6.4 32 22.4 89.6 28.8 128 0 3.2 3.2 9.6 3.2 12.8 12.8 54.4-25.6 99.2-73.6 99.2zM175.155 336c-3.2 6.4-6.4 19.2-9.6 32-16 44.8-22.4 86.4-28.8 124.8 0 6.4-3.2 9.6-3.2 16-3.2 9.6 6.4 19.2 16 19.2h51.2c9.6-60.8 35.2-137.6 57.6-192h-83.2zM629.555 224c-19.2-22.4-28.8-51.2-25.6-80s16-57.6 44.8-70.4l67.2-32c6.4-3.2 9.6-6.4 9.6-12.8 0-3.869-0.25-3.45-3.2-6.4-35.2-12.8-118.4-22.4-204.8-22.4s-172.8 9.6-204.8 22.4c-4.157 0-3.2 3.149-3.2 6.4 0 3.2 3.2 9.6 9.6 12.8l67.2 32c28.8 16 44.8 44.8 44.8 70.4 3.2 25.6-6.4 57.6-25.6 80-89.6 89.6-147.2 332.8-147.2 480h512c-6.4-163.2-57.6-390.4-140.8-480zM891.955 492.8c-6.403-41.6-22.4-96-28.8-124.8-3.2-16-6.4-25.6-9.6-32h-83.2c22.4 54.4 44.8 131.2 54.4 192h51.2c9.597 0 19.2-9.6 16-19.2 0-6.4 0-9.6 0-16zM594.355 515.2l-25.6-19.2c-6.4-3.2-6.4-12.8-6.4-19.2l9.6-32c3.2-16-12.8-25.6-25.6-19.2l-22.4 25.6c-6.4 3.2-12.8 3.2-19.2 0l-25.6-19.2c-12.8-9.6-28.8 3.2-25.6 19.2l9.6 32c3.2 6.4 0 12.8-6.4 19.2l-25.6 19.2c-12.8 9.6-6.4 28.8 9.6 28.8h32c6.4 0 12.8 3.2 16 9.6l9.6 32c3.2 16 25.6 16 32 0l9.6-32c3.2-6.4 9.6-9.6 16-9.6h32c12.8-6.4 19.2-25.6 6.4-35.2z" />
<glyph unicode="&#xe967;" glyph-name="course-32" d="M516.4 558.8l-168.8-66.6 168.8-66.7 168.8 66.7-168.8 66.6zM498.8 620.6c11.3 4.5 23.9 4.5 35.2 0l212.4-83.9c40.5-16 40.5-73.3 0-89.3l-38-15v-97.7c0-19-10.7-35.6-26.4-44-3.2-1.7-7.3-4.1-11.9-6.9-12.1-7.2-28.4-16.9-45.8-24-26.8-11-60.4-18.6-107.9-18.6s-81.1 7.7-107.9 18.6c-17.4 7.1-33.7 16.9-45.8 24-4.7 2.8-8.7 5.2-11.9 6.9-15.6 8.4-26.4 25-26.4 44v97.7l-38 15c-40.5 16-40.5 73.3 0 89.3l212.4 83.9zM388.4 407.2v-64.1c4.7-2.7 8.8-5.2 12.8-7.5 9.9-6 18.5-11.1 31.6-16.5 18.3-7.5 43.5-13.9 83.6-13.9s65.3 6.4 83.6 13.9c13.2 5.4 21.7 10.6 31.6 16.5 3.9 2.4 8.1 4.9 12.8 7.5v64.1l-110.4-43.5c-11.3-4.5-23.9-4.5-35.2 0l-110.4 43.5zM347.6 492.1l168.8-66.7 168.8 66.7-168.8 66.6-168.8-66.6zM388.4 407.2v-64.1c4.7-2.7 8.8-5.2 12.8-7.5 9.9-6 18.5-11.1 31.6-16.5 18.3-7.5 43.5-13.9 83.6-13.9s65.3 6.4 83.6 13.9c13.2 5.4 21.7 10.6 31.6 16.5 3.9 2.4 8.1 4.9 12.8 7.5v64.1l-110.4-43.5c-11.3-4.5-23.9-4.5-35.2 0l-110.4 43.5zM498.8 620.6c11.3 4.5 23.9 4.5 35.2 0l212.4-83.9c40.5-16 40.5-73.3 0-89.3l-38-15v-97.7c0-19-10.7-35.6-26.4-44-3.2-1.7-7.3-4.1-11.9-6.9-12.1-7.2-28.4-16.9-45.8-24-26.8-11-60.4-18.6-107.9-18.6s-81.1 7.7-107.9 18.6c-17.4 7.1-33.7 16.9-45.8 24-4.7 2.8-8.7 5.2-11.9 6.9-15.6 8.4-26.4 25-26.4 44v97.7l-38 15c-40.5 16-40.5 73.3 0 89.3l212.4 83.9zM832 768h-640c-53 0-96-43-96-96v-480c0-53 43-96 96-96h160v-96h-96c-17.7 0-32-14.3-32-32s14.3-32 32-32h512c17.7 0 32 14.3 32 32s-14.3 32-32 32h-96v96h160c53 0 96 43 96 96v480c0 53-43 96-96 96zM608 0h-192v96h192v-96zM864 192c0-17.7-14.3-32-32-32h-640c-17.7 0-32 14.3-32 32v480c0 17.7 14.3 32 32 32h640c17.7 0 32-14.3 32-32v-480z" />
<glyph unicode="&#xe968;" glyph-name="cross-32" d="M253.729 655.53c-12.497 12.497-32.758 12.497-45.255 0s-12.497-32.758 0-45.255l258.275-258.275-258.275-258.272c-12.497-12.499-12.497-32.758 0-45.258 12.497-12.496 32.758-12.496 45.255 0l258.274 258.275 258.275-258.275c12.496-12.496 32.758-12.496 45.254 0 12.496 12.499 12.496 32.758 0 45.258l-258.275 258.272 258.275 258.275c12.496 12.497 12.496 32.758 0 45.255s-32.758 12.497-45.254 0l-258.275-258.276-258.274 258.275z" />
<glyph unicode="&#xe969;" glyph-name="diploma-32" d="M224 512c0 17.7 14.3 32 32 32h512c17.7 0 32-14.3 32-32s-14.3-32-32-32h-512c-17.7 0-32 14.3-32 32zM224 352c0 17.7 14.3 32 32 32h160c17.7 0 32-14.3 32-32s-14.3-32-32-32h-160c-17.7 0-32 14.3-32 32zM224 192c0 17.7 14.3 32 32 32h96c17.7 0 32-14.3 32-32s-14.3-32-32-32h-96c-17.7 0-32 14.3-32 32zM64 608c0 53 43 96 96 96h704c53 0 96-43 96-96v-512c0-53-43-96-96-96h-32c-17.7 0-32 14.3-32 32s14.3 32 32 32h32c17.7 0 32 14.3 32 32v512c0 17.7-14.3 32-32 32h-704c-17.7 0-32-14.3-32-32v-512c0-17.7 14.3-32 32-32h288c17.7 0 32-14.3 32-32s-14.3-32-32-32h-288c-53 0-96 43-96 96v512zM640 352c-70.7 0-128-57.3-128-128 0-32.5 12.1-62.1 32-84.7v-164.7c0-42.8 51.7-64.2 81.9-33.9l14.1 14.1 14.1-14.1c30.2-30.2 81.9-8.8 81.9 33.9v164.7c19.9 22.6 32 52.2 32 84.7 0 70.7-57.3 128-128 128zM672 13.2c-18.2 16.3-45.8 16.3-64 0v86.8c20.5-5.3 43.5-5.3 64 0v-86.8zM640 160c-35.3 0-64 28.7-64 64s28.7 64 64 64 64-28.7 64-64-28.7-64-64-64z" />
<glyph unicode="&#xe96a;" glyph-name="drag-dots-32" d="M416 0c0-35.347-28.653-64-64-64s-64 28.653-64 64c0 35.347 28.654 64 64 64s64-28.653 64-64zM416 704c0-35.346-28.653-64-64-64s-64 28.654-64 64c0 35.346 28.654 64 64 64s64-28.654 64-64zM736 704c0-35.346-28.653-64-64-64s-64 28.654-64 64c0 35.346 28.653 64 64 64s64-28.654 64-64zM416 352c0-35.347-28.653-64-64-64s-64 28.653-64 64c0 35.347 28.654 64 64 64s64-28.653 64-64zM736 352c0-35.347-28.653-64-64-64s-64 28.653-64 64c0 35.347 28.653 64 64 64s64-28.653 64-64zM736 0c0-35.347-28.653-64-64-64s-64 28.653-64 64c0 35.347 28.653 64 64 64s64-28.653 64-64z" />
<glyph unicode="&#xe96b;" glyph-name="essey-32" d="M788.947 552.569c31.242 31.242 81.894 31.242 113.136 0l28.118-28.117c31.242-31.242 31.242-81.894 0-113.136l-339.402-339.402-90.451-30.15c-50.032-16.678-97.632 30.922-80.954 80.954l30.15 90.451 339.402 339.401zM816.259 387.882l-50.746 50.746-260.029-260.032-25.373-76.115 76.115 25.373 260.032 260.029zM288 448c0 17.674 14.327 32 32 32h224c17.674 0 32-14.326 32-32s-14.326-32-32-32h-224c-17.673 0-32 14.326-32 32zM288 608c0 17.673 14.327 32 32 32h384c17.674 0 32-14.327 32-32s-14.326-32-32-32h-384c-17.673 0-32 14.327-32 32zM288 288c0 17.674 14.327 32 32 32h64c17.674 0 32-14.326 32-32s-14.326-32-32-32h-64c-17.673 0-32 14.326-32 32zM288 128c0 17.674 14.327 32 32 32s32-14.326 32-32c0-17.674-14.326-32-32-32s-32 14.326-32 32zM160 704c0 53.019 42.981 96 96 96h512c53.021 0 96-42.981 96-96v-32c0-17.673-14.326-32-32-32s-32 14.327-32 32v32c0 17.673-14.326 32-32 32h-512c-17.673 0-32-14.327-32-32v-704c0-17.674 14.327-32 32-32h512c17.674 0 32 14.326 32 32v192c0 17.674 14.326 32 32 32s32-14.326 32-32v-192c0-53.021-42.979-96-96-96h-512c-53.019 0-96 42.979-96 96v704z" />
<glyph unicode="&#xe96c;" glyph-name="exclamation-32" d="M512-32c-212.077 0-384 171.923-384 384s171.923 384 384 384c212.077 0 384-171.923 384-384s-171.923-384-384-384zM512-96c247.424 0 448 200.576 448 448s-200.576 448-448 448c-247.424 0-448-200.576-448-448s200.576-448 448-448zM512 576c17.674 0 32-14.327 32-32v-256c0-17.674-14.326-32-32-32s-32 14.326-32 32v256c0 17.673 14.326 32 32 32zM544 160c0-17.674-14.326-32-32-32s-32 14.326-32 32c0 17.674 14.326 32 32 32s32-14.326 32-32z" />
<glyph unicode="&#xe96d;" glyph-name="file-32" d="M609 800h-353c-53 0-96-43-96-96v-704c0-53 43-96 96-96h512c53 0 96 43 96 96v557.7l-255 242.3zM628.2 693.5l123.7-117.5h-91.6c-17.7 0-32 14.3-32 32v85.5zM800 0c0-17.7-14.3-32-32-32h-512c-17.7 0-32 14.3-32 32v704c0 17.7 14.3 32 32 32h308.2v-128c0-53 43-96 96-96h139.8v-512zM320 416c0 17.7 14.3 32 32 32h320c17.7 0 32-14.3 32-32s-14.3-32-32-32h-320c-17.7 0-32 14.3-32 32zM320 256c0 17.7 14.3 32 32 32h320c17.7 0 32-14.3 32-32s-14.3-32-32-32h-320c-17.7 0-32 14.3-32 32zM320 96c0 17.7 14.3 32 32 32h320c17.7 0 32-14.3 32-32s-14.3-32-32-32h-320c-17.7 0-32 14.3-32 32z" />
<glyph unicode="&#xe96e;" glyph-name="graduation-cap-32" d="M520.506 702.464l418.4-186.426c27.254-10.058 28.4-57.018 1.683-69.072l-8.662-3.907c1.53-3.837 2.362-8.006 2.362-12.346v-135.078l28.822-57.254c7.955-15.805 1.507-35.027-14.41-42.931-5.968-2.963-12.416-3.914-18.57-3.114-5.53-9.712-16.026-16.266-28.061-16.266s-22.528 6.554-28.061 16.266c-6.147-0.8-12.595 0.15-18.56 3.114-15.914 7.904-22.365 27.126-14.41 42.931l28.813 57.235v109.344l-16.374 2.71-53.546-24.154c0.067-63.517 0.067-141.274 0.067-211.354 0-6.112-1.28-13.853-5.546-21.136-0.336-0.573-0.749-1.296-1.238-2.16-13.28-23.354-84.646-148.867-281.216-148.867-196.568 0-267.937 125.514-281.216 148.867-0.491 0.864-0.902 1.587-1.237 2.16-4.268 7.283-5.547 15.024-5.547 21.136 0 70.080 0 147.837 0.068 211.354l-140.658 63.45c-26.716 12.051-25.571 59.014 1.684 69.072l418.399 186.426c5.549 2.048 11.462 2.048 17.011 0zM522.189 258.227c-6.579-2.97-13.798-2.97-20.378 0l-220.211 99.338v-173.184c1.028-1.283 2.221-2.832 3.591-4.608 21.241-27.562 84.745-109.955 226.809-109.955s205.568 82.394 226.81 109.955c1.37 1.776 2.563 3.325 3.59 4.608v173.184l-220.211-99.338zM178.328 478.032l333.672-150.522 221.667 99.994-223.507 37.002c-17.552 2.906-29.408 19.392-26.483 36.826 2.925 17.43 19.526 29.21 37.078 26.304l318.131-52.666 6.787 3.062-333.674 155.152-333.672-155.152z" />
<glyph unicode="&#xe96f;" glyph-name="info-32" d="M512-32c-212.077 0-384 171.923-384 384s171.923 384 384 384c212.077 0 384-171.923 384-384s-171.923-384-384-384zM512-96c247.424 0 448 200.576 448 448s-200.576 448-448 448c-247.424 0-448-200.576-448-448s200.576-448 448-448zM512 160c-17.674 0-32 14.326-32 32v192c0 17.674 14.326 32 32 32s32-14.326 32-32v-192c0-17.674-14.326-32-32-32zM480 512c0 17.674 14.326 32 32 32s32-14.326 32-32c0-17.674-14.326-32-32-32s-32 14.326-32 32z" />
<glyph unicode="&#xe970;" glyph-name="internship-32" d="M899.7 232.7l-240.1 83.7c-10.2 3.5-21.2 3.6-31.4 0.1v0l-243.8-83.7c-32.3-11.1-32.5-56.6-0.3-68l57-20.1v-113.8c16.5-20.8 35.6-38.3 58-52.7 32.8-21.2 81.4-42.2 144.8-42.2s111.5 21 143.7 42.3c22 14.5 40.6 32 56.5 52.9v113.5l55.9 20.1c32 11.5 31.8 56.7-0.3 67.9zM780.1 54.2l-1-1c-5.8-5.7-14.7-13.6-26.7-21.5-23.9-15.7-60-31.7-108.5-31.7-48.6 0-85.4 16-110 31.9-12.4 8-21.6 15.9-27.7 21.7l-1 1v67.4l122.7-43.4c10.4-3.7 21.8-3.7 32.2 0.1l120 43.1v-67.6zM643.8 140.9l-162.5 57.4 162.5 55.8 160.1-55.8-160.1-57.4zM832 640h-160v32c0 53-43 96-96 96h-128c-53 0-96-43-96-96v-32h-160c-53 0-96-43-96-96v-416c0-53 43-96 96-96h112c17.7 0 32 14.3 32 32s-14.3 32-32 32h-112c-17.7 0-32 14.3-32 32v288h216.4c17.6-19.6 43.1-32 71.6-32h128c28.4 0 54 12.4 71.6 32h216.4v-64c0-17.7 14.3-32 32-32s32 14.3 32 32v192c0 53-43 96-96 96zM416 672c0 17.7 14.3 32 32 32h128c17.7 0 32-14.3 32-32v-32h-192v32zM864 480h-704v64c0 17.7 14.3 32 32 32h640c17.7 0 32-14.3 32-32v-64z" />
<glyph unicode="&#xe971;" glyph-name="location-32" d="M512 736c-140.726 0-256-116.814-256-262.4 0-51.136 18.931-113.706 50.322-175.869 31.191-61.766 73.239-120.269 116.244-163.043 21.789-21.67 56.304-65.747 89.402-70.678-0.006 0 0.016-0.003 0 0 0.010 0 0.048-0.003 0.064 0 33.098 4.931 67.613 49.008 89.402 70.678 43.005 42.774 85.053 101.277 116.243 163.043 31.392 62.163 50.323 124.733 50.323 175.869 0 145.586-115.274 262.4-256 262.4zM192 473.6c0 179.599 142.608 326.4 320 326.4s320-146.801 320-326.4c0-65.002-23.414-137.824-57.194-204.717-23.866-47.264-53.635-93.011-85.981-132.707 38.118-5.84 71.306-13.344 97.776-22.957 19.875-7.216 38.186-16.394 52.026-28.685 14.397-12.787 25.373-30.406 25.373-52.534 0-28.768-19.296-49.754-38.634-63.469-20.17-14.304-47.28-25.878-77.898-35.062-61.645-18.496-144.886-29.469-235.469-29.469s-173.824 10.973-235.469 29.469c-30.618 9.184-57.727 20.758-77.896 35.062-19.338 13.715-38.634 34.701-38.634 63.469 0 22.128 10.975 39.747 25.371 52.534 13.842 12.291 32.153 21.469 52.027 28.685 26.472 9.613 59.658 17.117 97.777 22.957-32.346 39.696-62.116 85.443-85.981 132.707-33.78 66.893-57.193 139.715-57.193 204.717zM388.307 78.592c-55.686-6.189-99.362-14.742-129.066-25.53-16.233-5.894-26.082-11.683-31.373-16.384-2.485-2.205-3.416-3.69-3.711-4.262-0.033-0.064-0.060-0.118-0.081-0.166 0.468-1.152 2.618-5.158 11.583-11.517 12.217-8.666 31.971-17.776 59.261-25.965 54.173-16.253 130.932-26.768 217.079-26.768s162.906 10.515 217.078 26.768c27.29 8.189 47.043 17.299 59.261 25.965 8.966 6.358 11.117 10.365 11.584 11.517-0.022 0.048-0.048 0.102-0.080 0.166-0.298 0.573-1.226 2.058-3.712 4.262-5.29 4.701-15.139 10.49-31.373 16.384-29.702 10.787-73.379 19.341-129.066 25.53-32.064-31.28-75.443-78.592-123.693-78.592s-91.629 47.312-123.693 78.592zM512 544c-35.347 0-64-28.653-64-64s28.653-64 64-64c35.347 0 64 28.653 64 64s-28.653 64-64 64zM384 480c0 70.692 57.309 128 128 128s128-57.308 128-128c0-70.691-57.309-128-128-128s-128 57.309-128 128z" />
<glyph unicode="&#xe972;" glyph-name="medal-32" d="M924.7 178.2l-188.4 217.4 22.9 17.8c26 20.2 32.4 56.8 15.2 84.6l-27.6 44.8c0 0.1-0.1 0.2-0.1 0.4l11.3 51.6c7 31.9-11 64.4-42.4 74.8l-49.5 16.3-24.1 46.8c-15.1 29.3-49.9 42.5-80.6 30l-48.2-19.7-48 20.1c-30.6 12.8-65.6-0.1-80.9-29.2v0l-24.5-46.6-49.6-15.9c-31.5-10.1-49.8-42.4-43.1-74.4l10.8-51.7c0-0.2 0-0.3-0.1-0.4l-28-44.5c-17.4-27.7-11.3-64.3 14.5-84.8l24.1-19.1-189.1-218.3c-22.4-25.9-4-66.2 30.2-66.2h66.2l10.1-80.6c4.4-35.5 49.7-47.8 71.5-19.3l181.5 237.4 9.2-8.5c24.3-22.5 61.6-22.7 86-0.4l10.6 9.6 182.1-238.1c21.7-28.4 67-16.2 71.5 19.3l10.1 80.6h66.2c34.3 0 52.7 40.3 30.2 66.2zM440.6 704c0 0 0.1 0 0.1 0 0.1 0 0.2 0 0.2 0s0.1 0 0.1 0 0 0 0 0c0 0 0 0 0 0l-0.1-0.2-0.3 0.2c-0.1 0 0 0 0 0zM262.1 97.5l-5.4 43.4c-2.5 20-19.5 35-39.7 35h-34.9l130.8 150.9c5.8-30.6 33-53.3 64.9-52.2l20.4 0.7-136.1-177.8zM549.7 323.2l-38.5-35 0.3-0.3c0 0 0 0-0.1 0s-0.1 0-0.2 0-0.1 0-0.2 0-0.1 0-0.1 0l0.3 0.3-38.2 35.4c-12.3 11.4-28.6 17.5-45.4 16.9l-51.9-1.8c0 0 0 0 0-0.1 0 0 0 0 0 0s0 0-0.1 0-0.2 0-0.2 0h0.3c0 0 0 0.1 0 0.1l-6.8 52.3c-2.2 16.5-10.7 31.7-23.8 42.1l-41.1 32.5c0 0 0 0.1-0.1 0.2s0 0.2 0 0.2c0 0 0 0 0 0.1 0 0 0 0 0 0.1l28 44.5c8.9 14.2 11.9 31.2 8.5 47.5l-10.6 51.8c0 0.1 0 0.2 0 0.2 0 0.1 0 0.1 0.1 0.2h-0.1l0.1 0.1c0 0 0 0 0 0l49.6 15.9c16 5.1 29.3 16.4 37.1 31.1l24.4 46.4 47.8-20c15.5-6.5 32.9-6.6 48.5-0.2l48 19.6-0.1 0.2c0 0 0 0 0 0s0 0 0 0 0 0 0 0 0.1 0 0.2 0c0 0 0.1 0 0.1 0s0 0 0 0 0.1 0 0.1 0l-0.4-0.2 24-46.7c7.6-14.9 20.8-26.2 36.8-31.5l49.5-16.3c0 0 0 0.1 0 0v0c0-0.1 0.1-0.1 0.1-0.2 0 0 0 0 0-0.1 0 0 0-0.1 0-0.1l-11.3-51.6c-3.6-16.3-0.7-33.4 8.1-47.6l27.6-44.8c0-0.1 0.1-0.1 0.1-0.1s0-0.1 0-0.1c0 0 0-0.1 0-0.1 0-0.1-0.1-0.2-0.1-0.2l-41.3-32.2c-13.2-10.3-21.9-25.3-24.2-41.9l-7.3-52.3c0 0 0-0.1 0-0.1h0.3c0 0-0.1 0-0.2 0s-0.1 0-0.1 0v0c0 0 0 0 0 0.1l-51.8 2.3c-16.9 0.7-33.3-5.3-45.7-16.6zM807.1 176c-20.2 0-37.2-15-39.7-35l-5.4-43.4-135.2 176.7 17.8-0.8c32.8-1.4 60.9 22.3 65.8 54.3l131.5-151.8h-34.8z" />
<glyph unicode="&#xe973;" glyph-name="organization-32" d="M755.514 320c-8.835 0-16-7.165-16-16s7.165-16 16-16c8.835 0 16 7.165 16 16s-7.165 16-16 16zM675.514 304c0 44.182 35.818 80 80 80s80-35.818 80-80c0-23.165-9.843-44.029-25.578-58.637 40.269-16.451 71.405-50.614 83.77-92.781 5.952-20.285-0.288-39.574-12.349-52.755-11.59-12.666-28.397-19.827-45.843-19.827h-160c-17.446 0-34.253 7.162-45.843 19.827-12.061 13.181-18.301 32.47-12.349 52.755 12.365 42.166 43.501 76.33 83.77 92.781-15.734 14.608-25.578 35.472-25.578 58.637zM682.16 144h146.707c-12.352 28.275-40.582 48-73.354 48s-61.002-19.725-73.354-48zM393.373 54.627c12.39 12.39 32.41 12.496 44.931 0.32 1.178-1.075 25.206-22.947 73.696-22.947s72.522 21.872 73.696 22.947c12.522 12.176 32.541 12.070 44.931-0.32 17.709-17.709 7.555-40.49-9.427-53.226-16.134-12.102-53.005-33.402-109.2-33.402-40.762 0-88.586 11.507-118.582 41.328-12.362 12.336-12.403 32.941-0.045 45.299zM339.69 600.282c-4.573 17.071-22.12 27.202-39.191 22.628-12.531-3.371-24.461-9.896-35.206-16.99-18.579-12.267-41.173-32.558-59.938-65.059-14.876-25.766-25.504-65.93-24.453-96.358 0.61-17.674 12.174-33.203 29.14-34.659 17.574-1.51 33.065 12.198 34.659 29.539 2.219 22.586 4.597 49.587 16.081 69.478 23.243 40.259 52.582 50.944 56.379 52.237 16.466 5.611 27.247 21.587 22.53 39.184zM684.31 600.309c4.573 17.071 22.122 27.202 39.19 22.627 12.531-3.37 24.461-9.895 35.206-16.99 18.579-12.267 41.174-32.557 59.939-65.057 14.877-25.766 25.504-65.93 24.451-96.358-0.608-17.674-12.173-33.203-29.139-34.662-17.574-1.51-33.066 12.198-34.659 29.542-2.218 22.586-4.595 49.587-16.080 69.478-23.242 40.257-52.582 50.942-56.378 52.236-16.467 5.61-27.248 21.587-22.531 39.184zM268.475 320c-8.836 0-16-7.165-16-16s7.164-16 16-16c8.836 0 16 7.165 16 16s-7.164 16-16 16zM188.475 304c0 44.182 35.817 80 80 80s79.999-35.818 79.999-80c0-23.165-9.843-44.029-25.578-58.637 40.272-16.451 71.405-50.614 83.773-92.781 5.949-20.285-0.288-39.574-12.352-52.755-11.59-12.666-28.394-19.827-45.843-19.827h-159.999c-17.447 0-34.253 7.162-45.844 19.827-12.061 13.181-18.3 32.47-12.35 52.755 12.367 42.166 43.501 76.33 83.772 92.781-15.733 14.608-25.578 35.472-25.578 58.637zM195.121 144h146.706c-12.352 28.275-40.582 48-73.353 48s-61.002-19.725-73.354-48zM511.994 704c-8.835 0-16-7.164-16-16s7.165-16 16-16c8.838 0 16 7.164 16 16s-7.162 16-16 16zM431.994 688c0 44.183 35.818 80 80 80s80-35.817 80-80c0-23.164-9.843-44.028-25.578-58.637 40.272-16.451 71.405-50.614 83.773-92.78 5.949-20.285-0.288-39.574-12.352-52.755-11.59-12.666-28.394-19.827-45.843-19.827h-160c-17.446 0-34.253 7.162-45.843 19.827-12.061 13.181-18.301 32.47-12.349 52.755 12.368 42.166 43.501 76.329 83.773 92.78-15.734 14.609-25.581 35.474-25.581 58.637zM438.64 528h146.707c-12.352 28.275-40.582 48-73.354 48s-61.002-19.725-73.354-48z" />
<glyph unicode="&#xe974;" glyph-name="person-at-the-desk-32" d="M896 352h-130c-11.6 93-73 170.4-156.7 204.9v0c19.1 22.4 30.7 51.4 30.7 83.1 0 70.7-57.3 128-128 128s-128-57.3-128-128c0-31.7 11.6-60.8 30.7-83.1-83.7-34.5-145.1-111.9-156.7-204.9h-130c-17.7 0-32-14.3-32-32s14.3-32 32-32h32v-320c0-17.7 14.3-32 32-32s32 14.3 32 32v128h576v-128c0-17.7 14.3-32 32-32s32 14.3 32 32v320h32c17.7 0 32 14.3 32 32s-14.3 32-32 32zM512 704c35.3 0 64-28.7 64-64s-28.7-64-64-64-64 28.7-64 64 28.7 64 64 64zM512 512c95.1 0 174.1-69.2 189.3-160h-378.6c15.2 90.8 94.2 160 189.3 160zM800 160h-576v128h576v-128z" />
<glyph unicode="&#xe975;" glyph-name="plus-32" d="M544 736c0 17.673-14.326 32-32 32s-32-14.327-32-32v-352h-352c-17.673 0-32-14.326-32-32s14.327-32 32-32h352v-352c0-17.674 14.326-32 32-32s32 14.326 32 32v352h352c17.674 0 32 14.326 32 32s-14.326 32-32 32h-352v352z" />
<glyph unicode="&#xe976;" glyph-name="print-32" d="M768 384c0-17.674-14.326-32-32-32s-32 14.326-32 32c0 17.674 14.326 32 32 32s32-14.326 32-32zM256 672c0 53.019 42.981 96 96 96h320c53.021 0 96-42.981 96-96v-128h64c53.021 0 96-42.979 96-96v-320c0-53.021-42.979-96-96-96h-64v-32c0-53.021-42.979-96-96-96h-320c-53.019 0-96 42.979-96 96v32h-64c-53.019 0-96 42.979-96 96v320c0 53.021 42.981 96 96 96h64v128zM320 544h384v128c0 17.673-14.326 32-32 32h-320c-17.674 0-32-14.327-32-32v-128zM256 96v96c0 53.021 42.981 96 96 96h320c53.021 0 96-42.979 96-96v-96h64c17.674 0 32 14.326 32 32v320c0 17.674-14.326 32-32 32h-640c-17.673 0-32-14.326-32-32v-320c0-17.674 14.327-32 32-32h64zM352 224c-17.674 0-32-14.326-32-32v-192c0-17.674 14.326-32 32-32h320c17.674 0 32 14.326 32 32v192c0 17.674-14.326 32-32 32h-320z" />
<glyph unicode="&#xe977;" glyph-name="published-article-32" d="M768 736c17.7 0 32-14.3 32-32v-704c0-17.7-14.3-32-32-32h-512c-17.7 0-32 14.3-32 32v704c0 17.7 14.3 32 32 32h512zM256 800c-53 0-96-43-96-96v-704c0-53 43-96 96-96h512c53 0 96 43 96 96v704c0 53-43 96-96 96h-512zM682.8 437c-4.5 15-12.9 29.5-23.2 43 10.3 13.5 18.7 28 23.2 43 4.8 15.9 5.7 35.3-4.5 53s-27.5 26.6-43.6 30.4c-15.2 3.6-32 3.6-48.8 1.4-6.5 15.6-14.9 30.2-25.7 41.6-11.5 12.1-27.7 22.6-48.2 22.6s-36.7-10.5-48.2-22.6c-10.7-11.3-19.1-25.9-25.7-41.6-16.8 2.2-33.6 2.2-48.8-1.4-16.2-3.9-33.4-12.7-43.6-30.4s-9.3-37.1-4.5-53c4.5-15 12.9-29.5 23.2-43-10.3-13.5-18.7-28-23.2-43-4.8-15.9-5.7-35.3 4.5-53s27.5-26.6 43.6-30.4c15.2-3.6 32-3.6 48.8-1.4 6.5-15.6 14.9-30.2 25.7-41.6 11.4-12.1 27.7-22.6 48.2-22.6s36.7 10.5 48.2 22.6c10.7 11.3 19.1 25.9 25.7 41.6 16.8-2.2 33.6-2.2 48.8 1.4 16.2 3.9 33.4 12.7 43.6 30.4s9.2 37.1 4.5 53zM421.1 414.8c0 0 0 0 0 0-7.4-0.4-13 0.1-16.9 1-0.9 0.2-1.6 0.4-2.2 0.6 0.1 0.6 0.3 1.3 0.6 2.2 1.1 3.8 3.5 8.9 7.5 15.1 3-2.5 6.1-4.9 9.3-7.3 0.5-3.8 1.1-7.7 1.7-11.6 0 0 0 0 0 0v0zM419.4 533.5v0c-3.2-2.4-6.3-4.9-9.3-7.3-4 6.2-6.4 11.3-7.5 15.1-0.3 0.9-0.4 1.6-0.6 2.2 0.6 0.2 1.3 0.4 2.2 0.6 3.9 0.9 9.5 1.4 16.9 1-0.6-3.8-1.2-7.7-1.7-11.6zM510.3 605.4c0.6 0.7 1.2 1.2 1.7 1.6 0.5-0.4 1-0.9 1.7-1.6 2.7-2.9 6-7.5 9.3-14.1-3.6-1.4-7.3-2.8-11-4.4-3.7 1.5-7.4 3-11 4.4 3.4 6.7 6.6 11.3 9.3 14.1zM513.7 354.6c-0.6-0.7-1.2-1.2-1.7-1.6-0.5 0.4-1 0.9-1.7 1.6-2.7 2.9-6 7.5-9.3 14.1 3.6 1.4 7.3 2.8 11 4.4 3.7-1.5 7.4-3 11-4.4-3.4-6.7-6.6-11.3-9.3-14.1zM543.6 461.8c-5-3.2-10.2-6.4-15.6-9.5s-10.7-6-16-8.7c-5.3 2.7-10.6 5.6-16 8.7s-10.6 6.3-15.6 9.5c-0.3 5.9-0.4 12-0.4 18.2s0.2 12.3 0.4 18.2c5 3.2 10.2 6.4 15.6 9.5s10.7 6 16 8.7c5.3-2.7 10.6-5.6 16-8.7s10.6-6.3 15.6-9.5c0.3-5.9 0.4-12 0.4-18.2s-0.2-12.3-0.4-18.2zM619.8 415.8c-3.9-0.9-9.5-1.4-16.9-1 0.6 3.9 1.2 7.8 1.7 11.7 3.2 2.4 6.3 4.9 9.3 7.3v0c4-6.2 6.4-11.3 7.5-15.1 0.3-0.9 0.4-1.6 0.6-2.2-0.6-0.2-1.3-0.4-2.2-0.7zM621.5 541.3c-1.1-3.8-3.5-8.9-7.5-15.1-3 2.5-6.1 4.9-9.3 7.3v0c-0.5 4-1.1 7.9-1.7 11.7 7.4 0.4 13-0.1 16.9-1 0.9-0.2 1.6-0.4 2.2-0.6-0.2-0.7-0.4-1.4-0.6-2.3zM288 192c0 17.7 14.3 32 32 32h384c17.7 0 32-14.3 32-32s-14.3-32-32-32h-384c-17.7 0-32 14.3-32 32zM288 64c0 17.7 14.3 32 32 32h320c17.7 0 32-14.3 32-32s-14.3-32-32-32h-320c-17.7 0-32 14.3-32 32z" />
<glyph unicode="&#xe978;" glyph-name="reorder-32" d="M160 480c0 17.674 14.975 32 33.449 32h637.102c18.474 0 33.45-14.326 33.45-32s-14.976-32-33.45-32h-637.102c-18.473 0-33.449 14.326-33.449 32zM160 224c0 17.674 14.975 32 33.449 32h637.102c18.474 0 33.45-14.326 33.45-32s-14.976-32-33.45-32h-637.102c-18.473 0-33.449 14.326-33.449 32zM602.73-19.773l-76.419-71.114c-4.269-3.498-9.2-5.222-14.131-5.222-4.928 0-9.846 1.738-13.606 5.21l-76.416 71.11c-6.042 5.069-7.69 12.736-4.71 19.347s10 11.002 17.773 11.002h153.379c7.782 0 14.803-4.323 17.786-10.973s1.875-14.307-3.654-19.36zM421.27 723.667l76.419 71.111c4.269 3.5 9.2 5.222 14.131 5.222 4.928 0 9.846-1.736 13.606-5.208l76.416-71.111c6.042-5.069 7.69-12.736 4.71-19.347s-10-11-17.773-11h-153.379c-7.782 0-14.803 4.323-17.786 10.972s-1.875 14.306 3.654 19.361z" />
<glyph unicode="&#xe979;" glyph-name="research-32" d="M798.1 94.8c10.7 14.1 19.3 29 26.1 45.2 16 38 21 80.6 23.8 130.3v1.7c0 37.8-8.7 95.2-35.7 146.3-18.9 35.9-47.6 69.8-88.8 90.5l3.3 3.3c28.1 28.1 30.6 72.2 7.6 103.5l26 26 45.3-45.3c12.5-12.5 32.8-12.5 45.3 0s12.5 32.8 0 45.3l-135.9 135.8c-12.5 12.5-32.8 12.5-45.3 0s-12.5-32.8 0-45.3l45.2-45.2-27-27.1c-30.7 18.3-70.8 14.3-97-11.9l-182.8-182.9c-31-31-30.9-81.5 0.4-112.8l22.6-22.6c31.2-31.2 81.7-31.4 112.8-0.4l49 49c29.1-9.2 46.4-20.7 57.3-34.4 13.6-17 21.6-42.7 21.7-87-2.1-33.3-19.1-63.5-46.4-91.7-25.6-26.3-58.4-49.1-90.6-69.1h-119v32h32c17.7 0 32 14.3 32 32s-14.3 32-32 32h-256c-17.7 0-32-14.3-32-32s14.3-32 32-32h32v-33.6c-36.5-7.4-64-39.7-64-78.4v-32c0-44.2 35.8-80 80-80h544c44.2 0 80 35.8 80 80v32c0 39.4-28.5 72.1-65.9 78.8zM498.7 374.5c-6.2-6.2-16.3-6.2-22.6 0.1l-22.6 22.6c-6.2 6.2-6.3 16.3-0.1 22.5l182.8 182.8c6.2 6.2 16.3 6.2 22.6-0.1v0l22.6-22.6c6.2-6.2 6.3-16.3 0.1-22.6l-182.8-182.7zM671.6 120.8c33.7 34.8 61.3 79 64.4 133.5l0.1 0.9v0.8c0 51.1-8.9 94.4-35.7 127.9-15.2 19-34.7 33.1-57.9 43.9l31.9 31.9c38.3-11.4 64-38.2 81.4-71.1 20.8-39.5 28.2-85.6 28.3-115.6-2.7-48.3-7.4-81.1-18.8-108.1v0c-10.1-23.9-26.3-45.4-56-68.8h-64.1c9.1 7.7 18 16 26.4 24.7zM288 128h64v-32h-64v32zM800-16c0-8.8-7.2-16-16-16h-544c-8.8 0-16 7.2-16 16v32c0 8.8 7.2 16 16 16h544c8.8 0 16-7.2 16-16v-32z" />
</font>
</defs>
</svg>
